<?xml version="1.0" encoding="UTF-8" standalone="no"?>
<svg width="213px" height="203px" viewBox="0 0 213 203" version="1.1" xmlns="http://www.w3.org/2000/svg" xmlns:xlink="http://www.w3.org/1999/xlink">
    <!-- Generator: Sketch 39.1 (31720) - http://www.bohemiancoding.com/sketch -->
    <title>dk-logo</title>
    <desc>Created with Sketch.</desc>
    <defs>
        <path d="M25.3352752,41.8062319 C25.2571101,43.8852657 25.2180275,45.9741063 25.2180275,48.0629469 C25.2180275,111.581353 58.9658257,166.175604 107.291422,190.261014 C155.617018,166.214831 189.364817,111.62058 189.364817,48.0629469 C189.364817,45.9642995 189.364817,43.8754589 189.247569,41.8062319 C166.364725,22.5555556 138.00055,11.1502899 107.291422,11.1502899 C76.5822936,11.1502899 48.2083486,22.5555556 25.3352752,41.8062319 L25.3352752,41.8062319 Z" id="path-1"></path>
    </defs>
    <g id="Page-1" stroke="none" stroke-width="1" fill="none" fill-rule="evenodd">
        <g id="landing-copy" transform="translate(-690.000000, -26.000000)">
            <g id="dk-logo" transform="translate(690.000000, 26.000000)">
                <path d="M102.513578,199.891256 C81.6989556,189.35238 63.5894461,174.132617 49.5957798,155.417585 L7.93376147,157.888889 L0.683944954,150.229807 L0.683944954,113.307343 L26.3807339,113.307343 C18.445028,92.4765281 14.4072837,70.3547267 14.4703211,48.0531401 C14.4703211,46.0133333 14.4703211,43.8362319 14.5973394,41.4041546 L14.7634404,36.6086473 L18.4274312,33.5195169 C44.212156,11.8367633 74.9408257,0.362850242 107.291422,0.362850242 C139.642018,0.362850242 170.360917,11.8367633 196.145642,33.5391304 L199.809633,36.6282609 L199.975734,41.4237681 C200.044128,43.3851208 200.083211,45.1209179 200.102752,46.7880676 C200.464266,46.9155556 200.816009,47.0528502 201.157982,47.1901449 C205.475515,48.7562095 209.127593,51.760669 211.505092,55.7024155 L211.573486,55.8200966 L212.316055,57.379372 L212.23789,58.4188889 C211.46932,67.0646751 206.150344,74.6367886 198.295183,78.2677778 L197.572156,78.6012077 C195.602687,90.4509035 192.460528,102.07388 188.192339,113.297536 L210.391239,113.297536 L210.391239,135.755024 L206.649083,135.755024 L206.649083,149.945411 L199.60445,157.633913 L189.159633,156.908213 L186.560642,156.741498 L183.48289,156.545362 L177.112431,156.172705 L167.859633,155.692174 L164.869817,155.554879 C150.902865,174.194162 132.849922,189.357652 112.108349,199.871643 L107.330505,202.244879 L102.513578,199.891256 Z" id="white" fill="#FFFFFF"></path>
                <path d="M104.252752,196.380435 C52.0775229,170.421932 18.378578,112.208986 18.378578,48.0531401 C18.378578,46.0917874 18.378578,43.9342995 18.5055963,41.551256 L18.5642202,38.5111594 L20.8994037,36.5498068 C45.9708716,15.4456522 75.8299541,4.28555556 107.242569,4.28555556 C138.655183,4.28555556 168.514266,15.4456522 193.585734,36.5498068 L195.920917,38.5111594 L196.028394,41.5610628 C196.11633,43.953913 196.155413,46.0721739 196.155413,48.0629469 C196.155413,112.199179 162.446697,170.412126 110.281239,196.370628 L107.242569,197.88087 L104.252752,196.380435 Z" id="black" fill="#0C0E10"></path>
                <mask id="mask-2" fill="white">
                    <use xlink:href="#path-1"></use>
                </mask>
                <use id="Mask" fill="#AA822D" xlink:href="#path-1"></use>
                <g id="dragon" mask="url(#mask-2)">
                    <g transform="translate(-70.348624, 22.555556)" id="Shape">
                        <path d="M218.500872,39.0995652 C212.003394,40.3254106 207.284174,46.1408213 207.284174,46.1408213 C207.284174,46.1408213 213.90867,49.9458454 218.588807,49.4947343 C221.7083,49.1547695 224.789543,48.5244237 227.792752,47.6118357 C227.792752,47.6118357 227.870917,46.0133333 227.939312,45.6504831 C228.113432,45.2264582 228.58544,44.616743 228.83382,44.2317886 C225.754436,43.7467753 224.998349,37.8737198 218.500872,39.0995652 Z" stroke="none" fill="#121111"></path>
                        <path d="M174.894495,139.314879 C174.894495,139.314879 186.726743,130.125942 186.863532,122.457053 C186.863532,122.457053 177.356697,133.117005 172.823119,136.70628 C172.315046,137.078937 174.894495,139.314879 174.894495,139.314879 L174.894495,139.314879 Z" stroke="#121111" stroke-width="1.94862491" fill="#000000"></path>
                        <path d="M194.220826,166.950338 L195.363991,165.391063 C195.363991,165.342029 199.086606,160.271932 199.086606,156.829758 C199.086606,154.466329 188.944679,140.805507 178.646422,135.539275 L178.109037,135.264686 L178.109037,133.303333 L195.022018,108.354928 L195.403073,106.717198 L197.357202,107.001594 C197.298578,107.933237 197.220413,108.962947 197.132477,109.943623 C196.370367,119.554251 195.178349,134.068261 204.675413,149.55314 C204.734037,149.651208 208.12445,155.662754 212.062018,155.662754 C213.937982,155.662754 215.73578,154.230966 217.41633,151.406618 L218.237064,150.023865 L228.720963,166.930725 L194.220826,166.950338 Z" stroke="none" fill="#681816"></path>
                        <path d="M196.389908,106.89372 C195.784128,116.318019 193.175367,132.597246 203.854679,150.043478 C203.854679,150.043478 207.508899,156.623816 212.071789,156.623816 C214.025917,156.623816 216.175459,155.397971 218.266376,151.88715 L226.972018,165.930435 L196.155413,165.930435 C196.155413,165.930435 200.06367,160.605362 200.06367,156.790531 C200.06367,153.652367 189.315963,139.834638 179.095872,134.627246 L179.095872,133.548502 L195.940459,108.698164 L196.389908,106.89372 L196.389908,106.89372 Z M194.484633,106.452415 L194.142661,107.913623 L177.532569,132.430531 L177.190596,132.930676 L177.190596,135.823671 L178.255596,136.37285 C187.928532,141.276232 197.904358,154.387874 198.158394,156.819952 C198.158394,159.36971 195.608257,163.419903 194.631193,164.76343 L192.344862,167.881981 L230.508991,167.881981 L228.652569,164.881111 L219.946927,150.837826 L218.256606,148.101739 L216.615138,150.867246 C215.120229,153.377778 213.60578,154.652657 212.101101,154.652657 C209.336009,154.652657 206.404817,150.52401 205.593853,149.082415 L205.593853,149.082415 L205.593853,149.082415 C196.292202,133.872126 197.435367,119.544444 198.187706,110.061304 C198.275642,109.002174 198.353807,107.992077 198.412431,107.060435 L194.562798,106.491643 L194.484633,106.452415 Z" stroke="none" fill="#000000"></path>
                        <path d="M154.962385,165.234155 C156.916514,159.026473 159.193073,147.935024 157.287798,144.639952 C157.287798,144.639952 156.779725,143.816184 153.379541,143.816184 C144.273303,143.816184 126.021743,149.445266 125.845872,149.504106 L125.015367,149.759082 L94.2085321,118.014589 L96.3776147,117.298696 C98.0581651,116.749517 100.197936,116.131691 102.68945,115.415797 C111.590505,112.856232 124.976284,109.002174 129.802982,104.157633 C132.264358,101.918108 133.543508,98.6540097 133.261789,95.3315459 C132.851422,91.4088406 130.066789,87.6038164 125.445275,84.5441063 C117.062064,79.0915459 107.760413,78.2775845 102.972798,78.2775845 C101.57229,78.2655243 100.172388,78.3408547 98.7811927,78.5031401 L90.4956881,79.6897585 L97.9213761,75.8258937 C102.161835,73.619372 100.764633,71.9914493 100.061147,68.8336715 C98.3415138,63.5968599 88.0725688,62.763285 82.0733945,62.763285 C78.6634404,62.763285 76.0937615,63.0182609 76.0742202,63.0182609 L72.0975688,63.4301449 L74.9212844,60.5959903 C77.3627509,58.1493794 78.5014152,54.6843608 77.9892661,51.2599517 L77.9892661,51.1324638 C77.5886697,44.5030918 61.2033028,40.2567633 50.9538991,39.1191787 L46.8990826,38.7171014 L50.3969725,36.54 C60.8808716,30.0086957 60.1676147,25.0268599 60.1676147,24.9778261 C58.3209633,17.2893237 36.3663303,13.837343 15.4083028,13.837343 L13.9036239,13.837343 L3.95711009,14.0138647 L13.4444037,11.0718357 C35.3501835,4.20710145 56.2495872,0.735507246 75.5661468,0.735507246 C105.356835,0.735507246 126.324633,9.07125604 138.664954,16.0634783 C152.099587,23.6735266 158.401651,31.2247343 158.655688,31.5385507 L159.632752,32.7153623 L158.391881,33.6077778 C150.350642,39.3741546 149.422431,51.9170048 149.422431,60.8411594 C149.422431,70.2458454 153.956009,89.7416908 159.544817,95.9984058 C160.195918,96.91338 161.177823,97.536379 162.280596,97.7342029 C162.724663,97.7216446 163.143031,97.5223628 163.433532,97.1850242 C164.041488,96.5274028 164.38898,95.6694121 164.410596,94.7725604 C164.410596,93.8703382 163.189266,90.9185024 161.919083,87.7901449 C158.685,79.8368599 153.789908,67.8039614 154.923303,58.8798068 C156.515917,46.3663768 166.267018,38.4327053 170.214358,35.7064251 C157.580917,26.6743961 158.587294,9.03202899 158.597064,8.82608696 L158.948807,3.41275362 L161.293761,8.31613527 C168.436101,23.2126087 179.955688,26.3409662 188.35844,26.3409662 C191.904289,26.3586224 195.431303,25.8226519 198.813028,24.7522705 L199.790092,24.3992271 L200.425183,25.2328019 C200.425183,25.2328019 204.157569,29.7733333 213.742569,29.7733333 C223.014908,29.7733333 224.685688,20.3392271 224.754083,19.96657 L225.242615,17.0245411 L227.196743,19.2408696 C227.29445,19.348744 236.615642,30.0283092 228.935917,41.2276329 L227.958853,42.6103865 L226.747294,41.4531884 C225.034694,40.1280324 222.919594,39.4353997 220.75789,39.4918357 C216.380642,39.4918357 211.436697,42.1102415 206.414587,47.062657 C209.824541,47.9648792 216.087523,49.5437681 218.530183,49.5437681 C220.475579,49.6886392 222.392543,49.0093531 223.816101,47.6706763 L226.092661,45.777971 L226.258761,48.5925121 C226.258761,49.0828502 226.893853,60.7725121 221.099862,65.4699517 L219.712431,66.5977295 L218.93078,64.9796135 C218.78422,64.6854106 215.374266,57.7618357 207.450275,57.7618357 L206.287569,57.7618357 L206.287569,57.7618357 C203.52894,58.2208346 200.878792,59.1883897 198.471055,60.6156039 C193.585734,63.6262802 191.289633,68.1570048 191.748853,74.0802899 L192.022431,77.5813043 L189.394128,75.2669082 C187.34513,73.3545156 185.717621,71.0328379 184.616284,68.4512077 C183.574976,72.6073791 184.01034,76.997929 185.847385,80.86657 C186.541101,82.2591304 187.801514,84.2400966 189.237798,86.5348792 C196.077248,97.44 207.616376,115.700193 196.927294,128.174396 C193.52711,132.146135 188.338899,133.224879 183.32656,134.274203 C178.900459,135.196039 174.718624,136.068841 173.096697,138.942222 C169.667202,145.012609 171.455229,155.064541 172.344358,156.290386 L172.881743,156.290386 C176.731376,156.290386 183.531743,152.681498 183.815092,152.524589 L185.280688,151.730242 L190.498211,166.783623 L177.55211,169.205894 L154.376147,167.09744 L154.962385,165.234155 Z" stroke="none" fill="#7A1D18"></path>
                        <path d="M183.267936,76.0514493 C183.267936,76.0514493 189.57,103.628068 187.860138,114.37628 C186.150275,125.124493 176.526193,135.588309 176.526193,135.588309 C176.526193,135.588309 200.776927,135.078357 200.776927,116.671063 C200.776927,100.156473 183.267936,76.0514493 183.267936,76.0514493 L183.267936,76.0514493 Z" stroke="none" fill="#9E4D23"></path>
                        <path d="M3.96688073,14.0236715 C3.96688073,14.0236715 69.0393578,4.76608696 94.4527982,9.33603865 C119.866239,13.9059903 159.652294,32.7153623 159.652294,32.7153623 C159.652294,32.7153623 141.283486,8.95357488 96.367844,2.14768116 C51.4522018,-4.65821256 3.96688073,14.0236715 3.96688073,14.0236715 L3.96688073,14.0236715 Z" stroke="none" fill="#7A1D18"></path>
                        <path d="M93.2412385,1.69657005 C136.759679,6.78628019 159.681606,32.7055556 159.681606,32.7055556 C147.380367,39.9527536 149.275872,62.9201932 149.275872,62.9201932 L152.646743,81.1215459 L157.795872,93.4682609 L162.319679,98.1657005 L164.439908,94.7627536 C164.439908,94.7627536 156.213028,77.5616908 154.766972,62.763285 C153.174358,46.7978744 171.113257,35.7848792 171.113257,35.7848792 C171.113257,35.7848792 158.489587,46.5723188 159.857477,62.4788889 C161.225367,78.3854589 171.386835,94.7823671 168.465413,99.9995652 C165.543991,105.216763 154.591101,101.490193 139.378211,107.531159 C121.585872,114.592029 101.047982,125.095072 101.047982,125.095072 L94.2085321,118.063623 C94.2085321,118.063623 105.767202,115.033333 117.980505,110.62029 C123.588853,108.59029 133.848028,103.088696 133.310642,96.0278261 C133.058747,93.3007283 131.93056,90.7296889 130.096101,88.7021739 C126.862018,85.1227053 121.038716,81.778599 114.71711,79.9741546 C103.969404,76.8948309 89.2059633,79.8564734 89.2059633,79.8564734 C89.2059633,79.8564734 104.379771,75.8062802 100.041606,68.9709662 C99.2657435,67.5199093 98.1234965,66.2990373 96.7293578,65.4307246 C94.7752294,64.3127536 91.7854128,63.7341546 88.912844,63.2536232 C81.4773853,62.017971 72.2148165,63.4791787 72.2148165,63.4791787 L76.9731193,58.291401 L78.8002294,53.2997585 C78.8002294,53.2997585 79.7772936,48.9749758 72.3222936,44.7972947 C64.8672936,40.6196135 46.8990826,38.7171014 46.8990826,38.7171014 C46.8990826,38.7171014 54.4224771,34.7355556 58.0376147,30.0871498 C60.0796789,27.4589372 61.2912385,25.1837681 58.164633,21.9181159 C49.507844,12.9057005 3.96688073,14.0236715 3.96688073,14.0236715 C3.96688073,14.0236715 49.7227982,-3.3931401 93.2412385,1.69657005 Z" stroke="none" fill="#681918"></path>
                        <path d="M64.417844,1.19642512 C64.417844,1.19642512 120.892156,-6.51169082 159.642523,32.7055556 C159.642523,32.7055556 153.780138,36.1183092 152.666284,42.3161836 C152.666284,42.3161836 123.745183,6.61956522 64.417844,1.19642512 L64.417844,1.19642512 Z" stroke="none" fill="#591716"></path>
                        <path d="M75.5759174,1.29449275 C105.239587,1.29449275 126.109679,9.59101449 138.391376,16.5440097 C151.738073,24.1050242 157.932661,31.5777778 158.22578,31.8915942 L158.812018,32.5976812 L158.06945,33.1272464 C149.813257,39.0113043 148.865505,51.7600966 148.865505,60.8313527 C148.865505,70.3242995 153.467477,90.0162802 159.13445,96.3710628 C160.258073,97.6263285 161.352385,98.3324155 162.290367,98.3324155 C162.884546,98.3196036 163.446925,98.0604502 163.843899,97.6165217 C164.553002,96.8465936 164.953233,95.8405707 164.967523,94.7921739 C164.967523,93.8114976 163.775505,90.9185024 162.427156,87.6038164 C159.212615,79.6995652 154.356606,67.7647343 155.470459,58.9876812 C157.121697,46.0035266 167.595826,38.1188889 171.210963,35.7456522 C158.128073,27.0764734 159.153991,9.12028986 159.163761,8.93396135 L159.378716,5.68792271 L160.785688,8.62995169 C168.055046,23.7421739 179.779817,26.929372 188.368211,26.929372 L188.368211,26.929372 C191.977461,26.9418982 195.566829,26.3927358 199.00844,25.3014493 L199.594679,25.0857005 L199.975734,25.5858454 C199.975734,25.5858454 203.786284,30.4009662 213.752339,30.4009662 C223.522982,30.4009662 225.252385,20.505942 225.33055,20.0842512 L225.62367,18.3288406 L226.805917,19.6135266 C226.893853,19.721401 235.921927,30.0479227 228.506009,40.8942029 L227.939312,41.7277778 L227.216284,41.0314976 C225.402488,39.5787763 223.136268,38.8147892 220.816514,38.8740097 C216.067982,38.8740097 210.742982,41.8160386 205.369128,47.3078261 C208.43711,48.141401 215.823716,50.0635266 218.579037,50.0635266 C220.650265,50.2180057 222.693307,49.5084575 224.226468,48.1021739 L225.643211,46.9351691 L225.740917,48.6219324 C225.740917,49.1024638 226.366239,60.4979227 220.796972,65.0188406 L219.966468,65.6955072 L219.497477,64.7148309 C219.350917,64.4108213 215.765092,57.17343 207.499128,57.17343 C207.108303,57.17343 206.707706,57.17343 206.287569,57.2224638 C203.451099,57.6920618 200.72713,58.6898865 198.256101,60.1644928 C193.136284,63.2928502 190.79133,68.0099034 191.260321,74.158744 L191.426422,76.2573913 L189.853349,74.8648309 C187.417706,72.6053573 185.626722,69.7346061 184.665138,66.5486957 C183.009228,71.3125709 183.282897,76.5385397 185.427248,81.1019324 C186.140505,82.5337198 187.381376,84.5244928 188.856743,86.8290821 C195.647339,97.6165217 207.010596,115.631546 196.595092,127.782126 C193.321927,131.606763 188.231422,132.685507 183.316789,133.666184 C178.76367,134.64686 174.464587,135.509855 172.705872,138.569565 C169.061422,145.012609 171.00578,155.986377 172.188028,156.741498 C172.451589,156.757663 172.715888,156.757663 172.97945,156.741498 C177.044037,156.741498 184.117982,152.94628 184.186376,152.907053 L185.065734,152.426522 L189.804495,166.09715 L178.079725,171.000531 L155.196881,166.420773 L155.538853,165.302802 C156.936055,160.772077 160.062661,148.150773 157.815413,144.208454 C157.62,143.875024 156.838349,143.10029 153.447936,143.10029 C144.273303,143.10029 125.933807,148.748986 125.748165,148.807826 L125.249862,148.964734 L95.2930734,118.171498 L96.5925688,117.74 C98.2633486,117.190821 100.422661,116.572995 102.914174,115.847295 C111.834771,113.277923 125.308486,109.404251 130.271972,104.451836 C132.797931,102.120718 134.119491,98.7558106 133.857798,95.3217391 C133.42789,91.2323188 130.555321,87.2703865 125.757936,84.1518357 C117.257477,78.6208213 107.828807,77.7970531 102.963028,77.7970531 C101.532992,77.7846816 100.103613,77.8632933 98.6834862,78.0324155 L93.7102294,78.7483092 L98.1656422,76.4241063 C102.865321,73.9822222 98.5760092,68.4217874 99.1427064,68.1864251 C97.296055,62.5671498 88.2288991,62.2435266 82.0733945,62.2435266 C78.6145872,62.2435266 76.0351376,62.4985024 76.0155963,62.5083092 L73.6608716,62.763285 L75.3609633,61.0569082 C77.9248478,58.4864595 79.1213289,54.8473551 78.5852752,51.2501449 L78.5852752,51.1324638 C78.1162844,43.3458937 58.5554587,39.482029 51.0516055,38.6582609 L48.5991743,38.3836715 L50.6998624,37.079372 C61.6918349,30.2146377 60.7147706,24.9778261 60.6952294,24.9287923 C58.7411009,16.3674879 35.0668349,13.3273913 15.427844,13.3273913 L13.9133945,13.3273913 L7.95330275,13.4352657 L13.6495872,11.6504348 C35.4967431,4.78570048 56.3375229,1.34352657 75.6052294,1.34352657 L75.5759174,1.29449275 Z M75.6052294,0.205942029 C56.2300459,0.205942029 35.2720183,3.687343 13.3076147,10.5618841 L7.61133028,12.346715 L0,14.7101449 L7.95330275,14.5630435 L13.9133945,14.4551691 L15.4083028,14.4551691 C36.1025229,14.4551691 57.7444954,17.7600483 59.5520642,25.1347343 C59.5520642,25.4583575 59.8061009,30.0381159 50.0745413,36.0986957 L47.9738532,37.3637681 L45.1794495,39.0995652 L48.4526147,39.4624155 L50.9050459,39.7370048 C59.3957339,40.7176812 77.0415138,44.7090338 77.4225688,51.1520773 L77.4225688,51.3089855 L77.4225688,51.3874396 L77.4225688,51.4462802 C77.9008597,54.6888833 76.8124047,57.9663201 74.4913761,60.2723671 L72.7912844,61.978744 L70.5342661,64.2441063 L73.7194954,63.9204831 L76.1035321,63.675314 C76.1035321,63.675314 78.6438991,63.4203382 82.0538532,63.4203382 C91.9515138,63.4203382 98.2731193,65.4797585 99.4162844,69.0592271 C99.4162844,69.0592271 101.282477,73.5114976 97.5794037,75.4336232 L93.1239908,77.7578261 L87.1834404,80.8469565 L93.8079358,79.8662802 L98.7811927,79.1503865 C100.14637,78.9898605 101.520158,78.9145305 102.894633,78.9248309 C107.633394,78.9248309 116.808028,79.7289855 125.06422,85.093285 C129.558716,88.035314 132.255413,91.68343 132.646239,95.4296135 C132.893268,98.569073 131.672992,101.645537 129.343761,103.755556 C124.683165,108.492222 111.385321,112.326667 102.591743,114.856812 C100.051376,115.582512 97.9018349,116.210145 96.2115138,116.759324 L94.9120183,117.190821 L93.172844,117.759614 L94.4527982,119.07372 L124.409587,149.866957 L124.898119,150.367101 L125.562523,150.161159 L126.041284,150.043478 C126.226927,149.984638 144.39055,144.384976 153.399083,144.384976 C156.017615,144.384976 156.71133,144.875314 156.799266,144.953768 C158.479817,148.023285 156.418211,158.565556 154.405459,165.106667 L154.063486,166.224638 L153.604266,167.715266 L155.157798,167.715266 L177.630275,169.264734 L189.794725,167.421063 L191.377569,167.421063 L190.859725,165.920628 L186.120963,152.25 L185.681284,150.984928 L184.508807,151.622367 L183.62945,152.102899 C181.235642,153.377778 175.930183,155.800048 172.959908,155.800048 L172.774266,155.800048 C171.933991,153.936763 170.536789,144.82628 173.673165,139.285459 C175.168073,136.637633 179.22289,135.794251 183.521972,134.892029 C188.632018,133.832899 193.908165,132.724734 197.435367,128.605894 C208.398028,115.857101 196.751422,97.3321256 189.794725,86.2897101 C188.35844,84.0047343 187.117569,82.0335749 186.423853,80.660628 C184.899323,77.4485866 184.371689,73.8508293 184.909404,70.3341063 C185.990779,72.3613256 187.404481,74.191346 189.091239,75.7474396 L190.664312,77.14 L192.765,78.9934783 L192.550046,76.1985507 L192.383945,74.0999034 C191.944266,68.4119807 194.113349,64.0577778 198.832569,61.1745894 C201.16724,59.79642 203.733669,58.8591185 206.404817,58.4090821 L207.489358,58.4090821 C215.061606,58.4090821 218.325,65.0188406 218.461789,65.2738164 L218.93078,66.2544928 L219.556101,67.5489855 L220.669954,66.6467633 L221.500459,65.9700966 C227.362844,61.1745894 226.942706,49.8870048 226.864541,48.6219324 L226.766835,46.9351691 L226.678899,44.5815459 L224.949495,46.0133333 L223.532752,47.1803382 C222.220701,48.4248079 220.447822,49.0582861 218.647431,48.925942 C217.015734,48.925942 212.980459,48.1119807 207.655459,46.7194203 C212.316055,42.3259903 216.859404,40.0115942 220.875138,40.0115942 C222.902756,39.9635266 224.885571,40.6142174 226.493257,41.8552657 L227.206514,42.5319324 L228.183578,43.4635749 L228.935917,42.3554106 L229.502615,41.5218357 C237.426606,29.9302415 227.812294,18.9662802 227.714587,18.8289855 L226.532339,17.5050725 L224.949495,15.7398551 L224.55867,18.0836715 L224.26555,19.8390821 C224.197156,20.2215459 222.614312,29.2045411 213.810963,29.2045411 C204.548394,29.2045411 200.962569,24.9091787 200.923486,24.8601449 L200.561972,24.3796135 L200.053899,23.7127536 L199.272248,23.9971498 L198.686009,24.2128986 C195.365211,25.2533872 191.905672,25.7791969 188.426835,25.7721739 C180.180413,25.7721739 168.88555,22.702657 161.870229,8.07096618 L160.463257,5.1289372 L158.587294,1.20623188 L158.284404,5.56043478 L158.030367,8.82608696 C158.030367,9.0026087 157.053303,26.3703865 169.227523,35.6966184 C164.899128,38.8249758 155.890596,46.6998068 154.376147,58.8405797 C153.223211,67.9118357 158.147615,80.0231884 161.401239,88.035314 C162.544404,90.8400483 163.834128,94.0272464 163.85367,94.8215942 C163.82462,95.5495811 163.540949,96.2440194 163.052477,96.7829469 C162.872457,97.0117872 162.600318,97.1483595 162.309908,97.1556039 C162.02656,97.1556039 161.244908,97.0085024 160.004037,95.6061353 C154.591101,89.5455556 150.028211,69.932029 150.028211,60.8313527 C150.028211,52.0052657 150.936881,39.6683575 158.763165,34.0588889 L159.505734,33.5293237 L160.482798,32.81343 L159.701147,31.8327536 L159.114908,31.1266667 C158.851101,30.8030435 152.490413,23.1831884 138.958073,15.5142995 C126.549358,8.53188406 105.522936,0.156908213 75.5759174,0.156908213 L75.6052294,0.205942029 Z" stroke="#121111" stroke-width="1.94862491" fill="#121111"></path>
                        <path d="M201.74422,35.3043478 C201.74422,35.3043478 195.881835,37.491256 195.276055,37.2657005 C194.670275,37.0401449 189.41367,32.3623188 189.41367,32.3623188 C189.41367,32.3623188 195.119725,30.8128502 196.487615,31.1462802 C197.855505,31.4797101 201.74422,35.3043478 201.74422,35.3043478 L201.74422,35.3043478 Z" stroke="#121111" stroke-width="1.94862491" fill="#121111"></path>
                    </g>
                </g>
                <g id="fire" transform="translate(160.238532, 49.033816)">
                    <path d="M27.8365596,26.2527053 C24.4754587,26.2527053 20.8798624,25.272029 16.522156,23.2322222 C15.5450917,22.7516908 14.4605505,22.1436715 13.3466972,21.5062319 C10.7379358,19.9959903 7.8262844,18.3092271 4.70944954,17.9954106 C6.00716021,17.1396358 7.52420298,16.6797747 9.07692661,16.6714976 L9.36027523,16.6714976 C10.3373394,16.6714976 11.3925688,16.7695652 12.5161927,16.8676329 C13.6398165,16.9657005 14.8709174,17.0735749 15.9945413,17.0735749 C20.0200459,17.0735749 22.1695872,15.4554589 22.3943119,12.2584541 C22.4588093,11.1705023 22.0694402,10.104661 21.3195413,9.31642512 C20.46208,8.43138389 19.3267245,7.87026671 18.105,7.72772947 C21.6091029,3.88280333 26.5932748,1.73883282 31.7838991,1.8436715 C34.2239563,1.83460425 36.6415865,2.31125152 38.8969266,3.24603865 C42.052025,4.3599275 44.7382945,6.51343113 46.5180275,9.35565217 L46.5180275,9.43410628 C45.7948333,15.9701956 41.7180476,21.6504373 35.7703211,24.4090338 C33.299716,25.6732162 30.5704964,26.3446155 27.7974771,26.3703865 L27.8365596,26.2527053 Z" id="Shape" fill="#F8DA3B"></path>
                    <path d="M2.7553211,17.9954106 C5.87215596,18.3092271 8.79357798,19.9567633 11.3925688,21.5062319 C12.506422,22.1534783 13.5518807,22.7614976 14.5680275,23.2322222 C18.9257339,25.2916425 22.5213303,26.2527053 25.8824312,26.2527053 L25.8824312,26.2527053 C28.6554505,26.2269343 31.3846701,25.555535 33.8552752,24.2913527 C39.8055963,21.5650725 45.3455505,16.7891787 45.9806422,10.3853623 L46.4691743,9.59101449 C44.6713761,6.43323671 39.4245413,3.99135266 36.9818807,3.13816425 C34.7265406,2.20337713 32.3089104,1.72672986 29.8688532,1.7357971 C24.6782289,1.63095843 19.694057,3.77492893 16.1899541,7.61985507 C17.0851181,7.82154327 17.9192678,8.23511643 18.622844,8.82608696 C22.5962839,4.91219024 28.5127245,3.75462433 33.6598624,5.88405797 C36.0259152,6.71867175 38.0406201,8.33293748 39.3756881,10.4638164 L39.3756881,10.522657 C38.8277165,15.4253733 35.7618761,19.6820692 31.295367,21.7415942 C29.4400164,22.6797041 27.3931855,23.1731624 25.3157339,23.1831884 L25.3157339,23.1831884 C19.3556422,23.1831884 8.82288991,16.946087 6.48770642,16.7107246 C5.18352271,16.9373823 3.92361898,17.3710408 2.7553211,17.9954106 L2.7553211,17.9954106 Z" id="Shape" fill="#ED812B"></path>
                    <path d="M31.8327523,3.24603865 C34.0747606,3.23671255 36.2963915,3.67334866 38.3693119,4.53072464 L38.5451835,4.59937198 C41.2086972,5.55323584 43.5011822,7.33218707 45.0915138,9.67927536 C44.2637375,15.5250177 40.5257363,20.5446943 35.1743119,22.9968599 L35.1156881,22.9968599 C32.8473151,24.1406879 30.3457756,24.7415314 27.8072477,24.7522705 C24.6708716,24.7522705 21.2706881,23.8402415 17.1181651,21.8690821 C16.1411009,21.417971 15.1640367,20.8197585 14.0501835,20.1921256 C12.9363303,19.5644928 11.578211,18.7603382 10.2494037,18.1327053 C10.9040367,18.1327053 11.6172936,18.2307729 12.3500917,18.2994203 C13.5421101,18.4072947 14.773211,18.5151691 15.9554587,18.5151691 C22.4236239,18.5151691 23.6547248,14.5924638 23.7719725,12.3271014 C23.8732632,10.824298 23.3415572,9.3478066 22.3063761,8.25729469 C21.8517819,7.77513261 21.324184,7.36804229 20.7430734,7.0510628 C23.8474158,4.51495907 27.7425687,3.15737899 31.7448165,3.21661836 L31.8327523,3.24603865 Z M31.7448165,0.274589372 C24.8565138,0.274589372 17.8607339,3.66772947 14.5680275,10.2088406 C15.2849249,9.48302532 16.2661524,9.08270657 17.2842661,9.10067633 C19.1602294,9.10067633 20.9677982,10.3363285 20.8407798,12.1211594 C20.645367,14.9357005 18.5349083,15.5633333 15.9066055,15.5633333 C13.7961468,15.5633333 11.3437156,15.161256 9.27233945,15.161256 L8.9596789,15.161256 C5.58697082,15.2006375 2.47772041,16.9987811 0.75233945,19.9077295 C1.66583577,19.5552819 2.63647754,19.375731 3.61513761,19.3781643 C7.95330275,19.3781643 12.0569725,22.7516908 15.8088991,24.526715 C19.5063348,26.4547603 23.5846845,27.5333883 27.7486239,27.6844928 C30.730501,27.674411 33.6697378,26.9729645 36.3370183,25.6348792 C42.9168359,22.6185037 47.3728095,16.2844101 48.0031651,9.05164251 L47.7686697,8.56130435 C45.8430935,5.40564441 42.89282,3.01245656 39.4147706,1.78483092 C36.9809562,0.770892691 34.3701648,0.254138615 31.7350459,0.264782609 L31.7448165,0.274589372 Z" id="Shape" fill="#121111"></path>
                </g>
                <g id="text" transform="translate(3.908257, 116.700483)">
                    <path d="M202.564954,0.529565217 L168.055046,0.529565217 C167.801215,0.515036561 167.546766,0.515036561 167.292936,0.529565217 L158.059679,0.529565217 L157.629771,0.529565217 L81.5164679,0.529565217 L81.5164679,0.529565217 L81.0963303,0.529565217 L71.8337615,0.529565217 C70.6495311,0.550792012 69.4924822,0.889371141 68.4824312,1.51024155 C67.4498593,0.875331315 66.2638478,0.53618714 65.0529358,0.529565217 L55.8392202,0.529565217 C54.315,0.529565217 51.3251835,0.617826087 51.3251835,0.617826087 L38.1055046,0.617826087 L32.633945,0.617826087 L0.683944954,0.617826087 L0.683944954,31.9994686 L5.56926606,37.2068599 L5.56926606,37.2068599 L45.9220183,34.7747826 L46.8990826,34.7747826 L46.8990826,34.7747826 L47.9933945,34.7747826 L47.9933945,34.7747826 L48.3744495,34.7747826 L56.9335321,34.5001932 L73.3286697,33.9804348 L73.3286697,33.9804348 C76.2598624,33.9150564 79.191055,33.8594847 82.1222477,33.8137198 L82.4544495,33.8137198 L82.4544495,33.8137198 L87.1834404,33.764686 L94.9999541,33.6960386 L108.239174,33.6960386 L108.239174,33.6960386 L115.811422,33.7744928 L121.165734,33.8431401 L122.133028,33.8431401 L126.910872,33.931401 L128.444862,33.931401 L129.763899,33.931401 L137.580413,34.1177295 L137.580413,34.1177295 L144.605505,34.3236715 L154.981927,34.6963285 L155.138257,34.6963285 C158.056422,34.8205475 160.987615,34.9513043 163.931835,35.088599 L164.088165,35.088599 L173.419128,35.5789372 L179.809128,35.9515942 L182.896651,36.1379227 L185.505413,36.3046377 L194.074266,36.8832367 L194.074266,36.8832367 L198.813028,31.7052657 L198.813028,15.0337681 L202.555183,15.0337681 L202.564954,0.529565217 Z" id="dk_bg" fill="#0C0E10"></path>
                    <path d="M14.6559633,21.3689372 L9.42866972,21.6042995 L9.42866972,12.5918841 L5.64743119,12.5918841 L5.64743119,26.1154106 C9.28862385,25.893124 12.9330734,25.687182 16.5807798,25.4975845 C17.0962736,25.4683083 17.5769561,25.2270785 17.9095872,24.8307246 C18.2843019,24.4077133 18.4835661,23.8568339 18.4665138,23.2910628 L18.4665138,12.5036232 L14.6461927,12.5036232 C14.6527064,15.4783414 14.6559633,18.4334461 14.6559633,21.3689372 L14.6559633,21.3689372 Z" id="Shape" fill="#9B732C"></path>
                    <path d="M30.6993578,14.0530918 L25.3938991,14.1609662 L25.3938991,12.51343 L21.573578,12.51343 L21.573578,25.2622222 L25.3938991,25.0758937 L25.3938991,18.3484541 L28.1394495,18.2601932 C29.3770642,20.4503704 30.611422,22.620934 31.8425229,24.7718841 L36.2881651,24.5855556 C35.0505505,22.4476812 33.8161927,20.2934622 32.5850917,18.1228986 C33.1085833,18.1155332 33.6049181,17.8877985 33.9529817,17.4952657 C34.3246658,17.089972 34.5244313,16.5552945 34.5099083,16.0046377 L34.5099083,12.4742029 L30.6895872,12.4742029 C30.6961009,13.0037681 30.6993578,13.5300644 30.6993578,14.0530918 L30.6993578,14.0530918 Z" id="Shape" fill="#9B732C"></path>
                    <path d="M46.5277982,15.7496618 L42.8540367,15.8183092 L43.8311009,12.4251691 L39.8251376,12.4251691 C38.7047706,16.4394042 37.5811468,20.4797907 36.4542661,24.5463285 L40.3625229,24.3894203 L41.6620183,19.8881159 L47.6709633,19.721401 L48.9313761,24.0854106 L52.839633,23.9579227 C51.7322936,20.1202093 50.6249541,16.2596135 49.5176147,12.3761353 L45.5116514,12.3761353 L46.5277982,15.7496618 Z" id="Shape" fill="#9B732C"></path>
                    <path d="M53.9437156,21.9671498 C53.9275443,22.4919006 54.1292553,22.9998184 54.5006422,23.3695169 C54.8504805,23.7306084 55.3379973,23.9234788 55.8392202,23.8990821 L65.0724771,23.6637198 C65.5798089,23.6583706 66.0631033,23.4459263 66.411055,23.075314 C66.7756803,22.7011631 66.9761938,22.1962607 66.9679817,21.6729469 L66.9679817,17.4756522 L66.9679817,13.6117874 L60.8515596,13.6804348 L60.8515596,17.6031401 L63.1867431,17.6031401 L63.1867431,19.8979227 L57.7347248,20.0057971 L57.7347248,12.4349758 L53.9534862,12.4349758 C53.9469725,15.5927536 53.9437156,18.7701449 53.9437156,21.9671498 L53.9437156,21.9671498 Z" id="Shape" fill="#9B732C"></path>
                    <path d="M79.1422018,19.6135266 L73.7292661,19.6821739 L73.7292661,12.3271014 L69.908945,12.3271014 L69.908945,21.6729469 C69.8919261,22.1834753 70.0948644,22.6766159 70.4658716,23.0262802 C70.8237428,23.372947 71.3075316,23.5572537 71.8044495,23.5362319 L81.076789,23.3891304 C81.5779634,23.3918826 82.0596133,23.194276 82.415367,22.8399517 C82.7832163,22.4881076 82.9855425,21.9964545 82.9722936,21.4866184 L82.9722936,12.2682609 L79.1519725,12.2682609 C79.1454587,14.706876 79.1422018,17.1552979 79.1422018,19.6135266 L79.1422018,19.6135266 Z" id="Shape" fill="#9B732C"></path>
                    <path d="M97.0224771,14.004058 L95.9281651,12.18 L90.8376606,12.18 L97.5012385,23.2126087 L100.842798,23.2126087 L100.842798,12.1309662 L97.0224771,12.1309662 L97.0224771,14.004058 Z" id="Shape" fill="#9B732C"></path>
                    <path d="M86.4604128,23.3106763 L90.2416514,23.3106763 L90.2416514,12.2388406 L86.4604128,12.2388406 C86.4604128,15.9261836 86.4604128,19.6167955 86.4604128,23.3106763 L86.4604128,23.3106763 Z" id="Shape" fill="#9B732C"></path>
                    <path d="M117.413807,14.043285 L117.413807,12.0819324 L113.593486,12.0819324 L113.593486,23.2616425 L116.817798,23.2616425 L120.04211,18.1817391 L123.266422,23.3400966 L128.308073,23.4185507 C126.451651,20.2673108 124.595229,17.1356844 122.738807,14.0236715 L122.63133,14.0236715 L123.901514,12.013285 L118.586284,12.013285 L117.413807,14.043285 Z" id="Shape" fill="#9B732C"></path>
                    <path d="M141.889266,14.2492271 L140.570229,11.9838647 L135.509037,11.9838647 C137.795367,15.867343 140.075183,19.7900483 142.348486,23.7519807 L145.690046,23.8402415 L145.690046,11.9446377 L141.869725,11.9446377 C141.882752,12.7226409 141.889266,13.4908374 141.889266,14.2492271 L141.889266,14.2492271 Z" id="Shape" fill="#9B732C"></path>
                    <path d="M131.327202,23.5362319 L135.10844,23.614686 L135.10844,12.0230918 L131.327202,12.0230918 C131.320688,15.8542673 131.320688,19.6919807 131.327202,23.5362319 L131.327202,23.5362319 Z" id="Shape" fill="#9B732C"></path>
                    <path d="M149.266101,23.9481159 L153.086422,24.0657971 L153.086422,11.9152174 L149.266101,11.9152174 L149.266101,23.9481159 Z" id="Shape" fill="#9B732C"></path>
                    <path d="M156.203257,22.163285 C156.19275,22.7015521 156.392665,23.222548 156.760183,23.614686 C157.100643,24.0007696 157.58527,24.2280018 158.098761,24.2423188 L167.332018,24.5953623 C167.835853,24.6238805 168.326273,24.4262689 168.670596,24.0559903 C169.047589,23.6698987 169.249097,23.1447506 169.227523,22.6045894 L169.227523,18.1621256 L169.227523,14.0727053 L163.111101,13.9648309 L163.111101,17.9954106 L165.446284,18.0542512 L165.446284,20.4569082 L159.994266,20.2901932 L159.994266,11.8857971 L156.213028,11.8857971 C156.2,15.3181643 156.196743,18.7439936 156.203257,22.163285 L156.203257,22.163285 Z" id="Shape" fill="#9B732C"></path>
                    <path d="M180.326972,14.3472947 L175.060596,14.2296135 L175.060596,11.807343 L171.240275,11.807343 L171.240275,24.732657 L175.060596,24.899372 L175.060596,18.3484541 L180.326972,18.5151691 L180.326972,25.1445411 L184.069128,25.3308696 L184.069128,11.7386957 L180.326972,11.7386957 L180.326972,14.3472947 L180.326972,14.3472947 Z" id="Shape" fill="#9B732C"></path>
                    <path d="M190.078073,11.7681159 L190.078073,25.7133333 L193.898394,25.9290821 L193.898394,11.7681159 L190.078073,11.7681159 Z" id="Shape" fill="#9B732C"></path>
                    <path d="M17.8704855,6.08021041 C17.5405699,5.68691042 17.0539171,5.46064225 16.5416782,5.46238432 L5.5985589,5.46238432 L5.5985589,12.601708 L9.37979743,12.601708 L9.37979743,9.8754278 L14.6461736,9.80678045 L14.6461736,12.5722877 L18.4664947,12.5722877 L18.4664947,7.66890606 C18.4890648,7.08039367 18.2741853,6.50762036 17.8704855,6.08021041 L17.8704855,6.08021041 Z" id="Shape" fill="#AA822D"></path>
                    <path d="M33.9627523,6.05077295 C33.6128721,5.66553164 33.1140994,5.45098166 32.5948624,5.46236715 L21.5833486,5.46236715 L21.5833486,12.5330435 L25.4036697,12.5330435 L25.4036697,9.64985507 L30.7091284,9.60082126 L30.7091284,12.5428502 L34.5294495,12.5428502 L34.5294495,7.55120773 C34.5623537,6.99283832 34.3561712,6.44693224 33.9627523,6.05077295 L33.9627523,6.05077295 Z" id="Shape" fill="#AA822D"></path>
                    <path d="M41.7890367,5.5015942 C41.1441743,7.80618357 40.4895413,10.1205797 39.8349083,12.4447826 L43.8408716,12.4447826 L44.7104587,9.50275362 L45.5605046,12.4447826 L49.5664679,12.4447826 C48.9118349,10.15 48.2572018,7.85521739 47.6123394,5.58004831 L41.7890367,5.5015942 Z" id="Shape" fill="#AA822D"></path>
                    <path d="M63.1769725,9.39510784 L63.1769725,11.7291175 L66.958211,11.7291175 L66.958211,7.49259576 C66.972833,6.97100719 66.7711519,6.46671606 66.4012844,6.10003538 C66.0516657,5.73540306 65.5668364,5.53294003 65.0627064,5.54104987 L55.8392202,5.54104987 C55.3331492,5.53307319 54.8471712,5.73957631 54.5006422,6.10984214 C54.1311281,6.48879035 53.9302221,7.00175636 53.9437156,7.53182282 L53.9437156,12.5038518 L57.7249541,12.5038518 L57.7249541,9.47356195 L63.1769725,9.39510784 Z" id="Shape" fill="#AA822D"></path>
                    <path d="M82.444636,6.09031956 C82.0926773,5.73028325 81.6085104,5.53164396 81.106058,5.54114082 L71.8337185,5.54114082 C70.7890816,5.54650409 69.9435575,6.39515407 69.9382139,7.4436529 L69.9382139,12.3470345 L73.758535,12.3470345 L73.758535,9.35597174 L79.1714708,9.35597174 L79.1714708,12.2980007 L82.9917919,12.2980007 L82.9917919,7.39461908 C82.9939647,6.90321008 82.7963616,6.43216783 82.444636,6.09031956 L82.444636,6.09031956 Z" id="Shape" fill="#AA822D"></path>
                    <path d="M91.9124312,5.48197708 L86.4604128,5.48197708 L86.4604128,12.2486438 L90.2416514,12.2486438 L90.2416514,11.2679674 L90.8474312,12.2486438 L95.9379358,12.2486438 L91.9124312,5.48197708 Z" id="Shape" fill="#AA822D"></path>
                    <path d="M97.0224771,5.46236715 L97.0224771,12.18 L100.842798,12.18 L100.842798,5.47217391 L97.0224771,5.46236715 Z" id="Shape" fill="#AA822D"></path>
                    <path d="M122.602018,5.46236715 L118.596055,12.0819324 L123.911284,12.0819324 C125.305229,9.88521739 126.695917,7.68523349 128.083349,5.48198068 L122.602018,5.46236715 Z" id="Shape" fill="#AA822D"></path>
                    <path d="M117.413807,5.46236715 L113.593486,5.46236715 L113.593486,12.1113527 L117.413807,12.1113527 L117.413807,5.46236715 L117.413807,5.46236715 Z" id="Shape" fill="#AA822D"></path>
                    <path d="M136.788991,5.46236715 L131.317431,5.46236715 L131.317431,12.0230918 L135.09867,12.0230918 L135.09867,11.3268116 L135.509037,12.0230918 L140.570229,12.0230918 C139.300046,9.80676329 138.029862,7.61985507 136.788991,5.46236715 L136.788991,5.46236715 Z" id="Shape" fill="#AA822D"></path>
                    <path d="M141.879495,5.46236715 L141.879495,11.974058 L145.699817,11.974058 L145.699817,5.48198068 L141.879495,5.46236715 Z" id="Shape" fill="#AA822D"></path>
                    <path d="M149.25633,5.46236715 L149.25633,11.9348309 L153.076651,11.9348309 L153.076651,5.47217391 L149.25633,5.46236715 Z" id="Shape" fill="#AA822D"></path>
                    <path d="M168.651055,6.01154589 C168.312024,5.62726564 167.823857,5.40910285 167.312477,5.41333333 L158.07922,5.41333333 C157.571159,5.40539099 157.083982,5.61597296 156.740642,5.99193237 C156.368655,6.3732688 156.16755,6.8902838 156.183716,7.42371981 L156.183716,11.8956039 L159.964954,11.8956039 L159.964954,9.43410628 L165.416972,9.43410628 L165.416972,11.8269565 L169.198211,11.8269565 L169.198211,7.46294686 C169.210321,6.92622305 169.014124,6.40578515 168.651055,6.01154589 L168.651055,6.01154589 Z" id="Shape" fill="#AA822D"></path>
                    <path d="M175.060596,5.46236715 L171.240275,5.46236715 L171.240275,11.8367633 L175.060596,11.8367633 L175.060596,5.46236715 L175.060596,5.46236715 Z" id="Shape" fill="#AA822D"></path>
                    <path d="M180.326972,5.46236715 L180.326972,11.7877295 L184.069128,11.7877295 L184.069128,5.47217391 L180.326972,5.46236715 Z" id="Shape" fill="#AA822D"></path>
                    <path d="M193.898394,9.93426318 L197.64055,9.93426318 L197.64055,5.58986704 L186.326147,5.58986704 L186.326147,9.80677526 L190.068303,9.80677526 L190.068303,11.8367753 L193.888624,11.8367753 C193.895138,11.2222181 193.898394,10.5880474 193.898394,9.93426318 L193.898394,9.93426318 Z" id="Shape" fill="#AA822D"></path>
                    <path d="M138.723578,30.4350481 L138.723578,28.6847826 L130.907064,28.6847826 C130.508202,28.6377353 130.106881,28.6148115 129.705275,28.6161353 C129.342657,28.6152567 128.98037,28.6381881 128.620734,28.6847826 L127.585046,28.6847826 L127.585046,28.8907246 C126.051285,29.2960842 124.727871,30.2704089 123.881972,31.6170048 L121.86922,31.6170048 L121.86922,31.6562319 L119.757389,31.6562319 C119.319309,31.577864 118.860035,31.5323059 118.381101,31.5214675 L118.381101,27.9688889 L111.06289,28.9905015 L111.06289,27.9688889 L99.9634404,29.5183575 L99.9634404,31.6562319 L94.0563013,31.6562319 C93.5618174,31.5722381 93.0448295,31.528744 92.5084404,31.528744 C92.107482,31.528744 91.7173646,31.5529681 91.3393842,31.600187 C90.1835223,30.1757791 88.299564,29.1947343 85.6005963,29.1947343 L77.4323394,29.1947343 L77.4323394,29.684931 L76.4845872,29.4791304 C75.261063,29.2152849 74.0134124,29.080527 72.7619725,29.0770531 C72.1035813,29.0770531 71.5007625,29.1217632 70.9488944,29.2045411 L54.3345413,29.2045411 L56.5622477,40.26657 C56.5622477,43.8264251 59.0635321,47.6510628 64.5644037,47.6510628 C65.9942465,47.6510628 67.2214261,47.3919934 68.2545219,46.9461892 C69.5798885,47.4209056 70.9796309,47.6601257 72.3906881,47.6510628 C74.6504688,47.6510628 76.2717733,47.139181 77.4323394,46.3705347 L77.4323394,47.5137681 L85.8741743,47.5529952 C87.0475889,47.5529952 88.1196331,47.3436068 89.0576783,46.9575795 C90.0701846,47.4066005 91.2339937,47.6510628 92.5084404,47.6510628 C93.6963182,47.6510628 94.7890455,47.437751 95.752921,47.0436524 C96.5984005,47.452467 97.5200833,47.6510628 98.4196789,47.6510628 L98.4196789,47.6510628 C98.950132,47.6484998 99.4794962,47.6025832 100.002523,47.5137681 L103.656743,47.5137681 L108.623477,47.5137681 C109.077473,47.6041048 109.552985,47.6510628 110.046743,47.6510628 L110.046743,47.6510628 C110.499459,47.6473138 110.950849,47.6013513 111.395092,47.5137681 L116.649266,47.5137681 C117.168426,47.604282 117.71418,47.6510628 118.283394,47.6510628 C118.891749,47.648804 119.498091,47.6020706 120.097679,47.5116749 L122.846284,47.5092486 L122.846284,47.5137681 L125.692573,47.506736 L128.835688,47.5039614 L128.835688,47.4989705 L135.971533,47.4813404 C136.628789,47.5875322 137.293942,47.6444021 137.961468,47.6510628 C139.358529,47.6510628 140.594194,47.3699283 141.623935,46.8489417 C142.25711,46.9979226 142.956108,47.0724638 143.716376,47.0724638 L143.716376,47.0724638 C144.701514,47.0792765 145.681329,46.9269598 146.618257,46.6213527 C146.618257,46.6213527 150.028211,45.1013043 150.428807,43.7283575 C150.829404,42.3554106 150.31156,37.5010628 150.31156,37.5010628 L152.949633,31.6170048 L148.591927,31.6170048 L148.591927,29.0574396 L138.723578,30.4350481 Z" id="boulder_fist_bg" fill="#0C0E10"></path>
                    <path d="M68.0036697,33.7842995 L68.0036697,40.26657 C68.0036697,41.6591304 67.1438532,43.0713043 64.5644037,43.0713043 C61.9849541,43.0713043 61.1251376,41.6591304 61.1251376,40.26657 L61.1251376,33.7842995 L63.1769725,33.7842995 L63.1769725,40.0802415 C63.1769725,40.8255556 63.5287156,41.2472464 64.554633,41.2472464 C65.5805505,41.2472464 65.9420642,40.8255556 65.9420642,40.0802415 L65.9420642,33.7842995 L68.0036697,33.7842995 Z" id="Shape" fill="#FFFFFF"></path>
                    <path d="M72.3906881,43.0713043 C71.3842214,43.0741952 70.3874339,42.8741007 69.4594954,42.4828986 L69.8014679,40.8843961 C70.6497004,41.1664647 71.5362556,41.3153214 72.4297706,41.3257005 C73.485,41.3257005 73.6901835,41.1197585 73.6901835,40.3450242 C73.6901835,39.5702899 73.6901835,39.4231884 72.1561927,39.0995652 C69.9480275,38.6190338 69.6255963,38.1777295 69.6255963,36.1575362 C69.6255963,34.3334783 70.2704587,33.597971 72.7717431,33.597971 C73.7014865,33.6021505 74.6282378,33.7040427 75.5368349,33.9019807 L75.3316514,35.6377778 C74.4979633,35.4720181 73.6508803,35.3833857 72.801055,35.3729952 C71.8826147,35.3729952 71.6774312,35.5397101 71.6774312,36.20657 C71.6774312,37.0891787 71.6774312,37.0989855 73.1527982,37.4422222 C75.615,38.030628 75.7420183,38.5111594 75.7420183,40.3156039 C75.7420183,42.1200483 75.1362385,43.0713043 72.3906881,43.0713043 L72.3906881,43.0713043 Z" id="Shape" fill="#FFFFFF"></path>
                    <polygon id="Shape" fill="#FFFFFF" points="77.0317431 39.9037198 77.0317431 38.2463768 80.558945 38.2463768 80.558945 39.893913"></polygon>
                    <path d="M85.8937156,42.9340097 L81.9854587,42.9340097 L81.9854587,33.7842995 L85.581055,33.7842995 C87.4863303,33.7842995 88.1800459,34.5492271 88.1800459,35.7456522 L88.1800459,36.7263285 C88.2102414,37.3715436 87.8119852,37.9591444 87.2029817,38.1679227 C87.9872758,38.3468028 88.5432748,39.0474259 88.5415596,39.854686 L88.5415596,40.7471014 C88.531789,42.0415942 87.711055,42.9340097 85.8937156,42.9340097 L85.8937156,42.9340097 Z M86.1575229,36.0692754 C86.1575229,35.6671981 85.9132569,35.422029 85.336789,35.422029 L84.0275229,35.422029 L84.0275229,37.5108696 L85.2977064,37.5108696 C85.8448624,37.5108696 86.1184404,37.2362802 86.1184404,36.8636232 L86.1575229,36.0692754 Z M86.4897248,39.8841063 C86.4897248,39.3741546 86.1770642,39.1191787 85.6299083,39.1191787 L84.0275229,39.1191787 L84.0275229,41.2472464 L85.2977064,41.2472464 C85.9425688,41.2472464 86.4506422,41.1099517 86.4506422,40.4528986 L86.4897248,39.8841063 Z" id="Shape" fill="#FFFFFF"></path>
                    <path d="M89.4893119,40.3646377 L89.4893119,38.8151691 C89.4893119,37.4422222 90.1341743,36.1085024 92.4986697,36.1085024 C94.8631651,36.1085024 95.5080275,37.4422222 95.5080275,38.8151691 L95.5080275,40.3646377 C95.5080275,41.7375845 94.8631651,43.0713043 92.4986697,43.0713043 C90.1341743,43.0713043 89.4893119,41.7375845 89.4893119,40.3646377 L89.4893119,40.3646377 Z M93.5441284,40.4234783 L93.5441284,38.7563285 C93.5441284,38.1286957 93.2119266,37.7756522 92.5084404,37.7756522 C91.8049541,37.7756522 91.4727523,38.1385024 91.4727523,38.7563285 L91.4727523,40.4234783 C91.4727523,41.0511111 91.8049541,41.4041546 92.5084404,41.4041546 C93.2119266,41.4041546 93.5441284,41.0511111 93.5441284,40.4136715 L93.5441284,40.4234783 Z" id="Shape" fill="#FFFFFF"></path>
                    <path d="M98.8593578,36.2850242 L98.8593578,40.7078744 C98.8391728,40.8405041 98.883074,40.9748595 98.9775958,41.0697307 C99.0721176,41.1646019 99.205978,41.2086654 99.3381193,41.1884058 C99.8435101,41.1237234 100.331425,40.960484 100.774404,40.7078744 L100.774404,36.2850242 L102.728532,36.2850242 L102.728532,42.9732367 L101.262936,42.9732367 L101.057752,42.463285 C100.225331,42.8592628 99.3207992,43.0795563 98.4001376,43.1105314 C97.2667431,43.1105314 96.8661468,42.257343 96.8661468,40.9628502 L96.8661468,36.2850242 L98.8593578,36.2850242 Z" id="Shape" fill="#FFFFFF"></path>
                    <polygon id="Shape" fill="#FFFFFF" points="104.545872 42.9340097 104.545872 33.5097101 106.5 33.2351208 106.5 42.9340097"></polygon>
                    <path d="M107.936284,38.57 C107.936284,36.9911111 108.620229,36.0986957 110.183532,36.0986957 C110.755513,36.1040748 111.325344,36.1698147 111.883624,36.2948309 L111.883624,33.5097101 L113.837752,33.2351208 L113.837752,42.9340097 L112.293991,42.9340097 L112.088807,42.3946377 C111.473373,42.7917615 110.767142,43.0246666 110.036972,43.0713043 C108.678853,43.0713043 107.926514,42.2377295 107.926514,40.6 L107.936284,38.57 Z M111.844541,37.9815942 C111.431555,37.8809306 111.008998,37.8250389 110.584128,37.8148792 C110.066284,37.8148792 109.870872,38.1286957 109.870872,38.57 L109.870872,40.5901932 C109.870872,41.0609179 110.066284,41.345314 110.584128,41.345314 C111.048825,41.3117701 111.490573,41.1296057 111.844541,40.8255556 L111.844541,37.9815942 Z" id="Shape" fill="#FFFFFF"></path>
                    <path d="M117.247706,40.2763768 L117.247706,40.4725121 C117.247706,41.2374396 117.550596,41.4531884 118.449495,41.4531884 C119.13316,41.4475768 119.813137,41.3519621 120.472018,41.1687923 L120.755367,42.6496135 C119.949614,42.9242296 119.105009,43.0666213 118.254083,43.0713043 C116.094771,43.0713043 115.274037,42.0023671 115.274037,40.3548309 L115.274037,38.7857488 C115.274037,37.3441546 115.918899,36.1085024 118.136835,36.1085024 C120.354771,36.1085024 120.833532,37.4226087 120.833532,38.8838164 L120.833532,40.2861836 L117.247706,40.2763768 Z M118.967339,38.5013527 C118.967339,38.030628 118.83055,37.6481643 118.146606,37.6481643 C117.462661,37.6481643 117.247706,38.030628 117.247706,38.5013527 L117.247706,38.7857488 L118.967339,38.7857488 L118.967339,38.5013527 Z" id="Shape" fill="#FFFFFF"></path>
                    <path d="M124.263028,38.8445894 L124.263028,42.9242029 L122.308899,42.9242029 L122.308899,36.2850242 L123.950367,36.2850242 L124.087156,36.9322705 C124.642869,36.5799153 125.249203,36.315317 125.884954,36.1477295 L126.051055,38.0110145 C125.428342,38.2270896 124.829228,38.5063953 124.263028,38.8445894 L124.263028,38.8445894 Z" id="Shape" fill="#FFFFFF"></path>
                    <path d="M132.118624,42.9340097 L132.118624,37.824686 L129.382844,37.824686 L129.382844,42.9340097 L127.428716,42.9340097 L127.428716,37.824686 L126.920642,37.824686 L126.920642,36.2850242 L127.428716,36.2850242 L127.428716,35.422029 C127.428716,34.0490821 128.073578,33.2743478 129.685734,33.2743478 C130.147765,33.2671651 130.60843,33.3266124 131.053624,33.4508696 L130.809358,35.0003382 C130.56509,34.9492087 130.31631,34.9229245 130.066789,34.9218841 C129.441468,34.9218841 129.392615,35.1964734 129.392615,35.6377778 L129.392615,36.2850242 L134.102064,36.2850242 L134.102064,42.9732367 L132.118624,42.9340097 Z M132.118624,35.4024155 L132.118624,33.3429952 L134.072752,33.3429952 L134.072752,35.4416425 L132.118624,35.4024155 Z" id="Shape" fill="#FFFFFF"></path>
                    <path d="M137.961468,43.0713043 C137.139143,43.0501785 136.323693,42.9148678 135.538349,42.6692271 L135.811927,41.1884058 C136.465262,41.384238 137.142856,41.486583 137.824679,41.4924155 C138.410917,41.4924155 138.508624,41.3257005 138.508624,40.93343 C138.508624,40.5411594 138.508624,40.4528986 137.424083,40.1881159 C135.811927,39.7860386 135.655596,39.3545411 135.655596,38.0992754 C135.655596,36.6871014 136.202752,36.1379227 138.205734,36.1379227 C138.885516,36.1396587 139.563297,36.2119597 140.228257,36.3536715 L140.052385,37.8933333 C139.446526,37.7772425 138.832138,37.7116405 138.215505,37.6971981 C137.639037,37.6971981 137.502248,37.8442995 137.502248,38.1483092 C137.502248,38.4523188 137.560872,38.6190338 138.352294,38.7955556 C140.257569,39.2172464 140.394358,39.6291304 140.394358,40.9628502 C140.394358,42.29657 139.856972,43.0713043 137.961468,43.0713043 L137.961468,43.0713043 Z" id="Shape" fill="#FFFFFF"></path>
                    <path d="M144.068119,43.0713043 C142.797936,43.0713043 142.055367,42.5907729 142.055367,41.3551208 L142.055367,37.8344928 L141.146697,37.8344928 L141.146697,36.2850242 L142.055367,36.2850242 L142.055367,34.676715 L144.009495,34.4021256 L144.009495,36.2850242 L145.582569,36.2850242 L145.475092,37.8835266 L144.068119,37.8835266 L144.068119,41.1295652 C144.068119,41.4041546 144.23422,41.5022222 144.478486,41.5022222 C144.756946,41.5020493 145.033735,41.4590545 145.29922,41.3747343 L145.533716,42.8751691 C145.058729,43.0185708 144.563946,43.0847858 144.068119,43.0713043 L144.068119,43.0713043 Z" id="Shape" fill="#FFFFFF"></path>
                </g>
            </g>
        </g>
    </g>
</svg>