<?xml version="1.0" encoding="UTF-8" standalone="no"?>
<svg width="96px" height="91px" viewBox="0 0 96 91" version="1.1" xmlns="http://www.w3.org/2000/svg" xmlns:xlink="http://www.w3.org/1999/xlink">
    <!-- Generator: Sketch 39.1 (31720) - http://www.bohemiancoding.com/sketch -->
    <title>footer_logo</title>
    <desc>Created with Sketch.</desc>
    <defs>
        <path d="M10.8944954,17.5644928 C10.8577982,18.5374396 10.8394495,19.5149758 10.8394495,20.4925121 C10.8394495,50.2178744 26.6834862,75.7669082 49.3715596,87.0384058 C72.059633,75.7852657 87.9036697,50.2362319 87.9036697,20.4925121 C87.9036697,19.5103865 87.9036697,18.5328502 87.8486239,17.5644928 C77.1055046,8.55555556 63.7889908,3.21811594 49.3715596,3.21811594 C34.9541284,3.21811594 21.6330275,8.55555556 10.8944954,17.5644928 L10.8944954,17.5644928 Z" id="path-1"></path>
    </defs>
    <g id="Page-1" stroke="none" stroke-width="1" fill="none" fill-rule="evenodd">
        <g id="landing-copy" transform="translate(-752.000000, -1783.000000)">
            <g id="footer_logo" transform="translate(751.000000, 1783.000000)">
                <path d="M47.9449541,89.9021739 C23.4495413,77.7541063 7.62844037,50.5115942 7.62844037,20.4879227 C7.62844037,19.5700483 7.62844037,18.5603865 7.68807339,17.4451691 L7.71559633,16.0224638 L8.81192661,15.1045894 C20.5825688,5.22826087 34.6009174,0.00555555556 49.3486239,0.00555555556 C64.0963303,0.00555555556 78.1146789,5.22826087 89.8853211,15.1045894 L90.9816514,16.0224638 L91.0321101,17.4497585 C91.0733945,18.5695652 91.0917431,19.5608696 91.0917431,20.4925121 C91.0917431,50.5070048 75.266055,77.7495169 50.7752294,89.8975845 L49.3486239,90.6043478 L47.9449541,89.9021739 Z" id="black" fill="#0C0E10"></path>
                <mask id="mask-2" fill="white">
                    <use xlink:href="#path-1"></use>
                </mask>
                <use id="Mask" fill="#AA822D" xlink:href="#path-1"></use>
                <g id="dragon" mask="url(#mask-2)">
                    <g transform="translate(-34.027523, 8.555556)" id="Shape">
                        <path d="M102.582569,18.2978261 C99.5321101,18.8714976 97.3165138,21.5929952 97.3165138,21.5929952 C97.3165138,21.5929952 100.426606,23.3736715 102.623853,23.1625604 C104.088404,23.0034636 105.534997,22.7084741 106.944954,22.281401 C106.944954,22.281401 106.981651,21.5333333 107.013761,21.3635266 C107.095508,21.1650913 107.317108,20.8797566 107.433718,20.6996055 C105.987998,20.4726288 105.633028,17.7241546 102.582569,18.2978261 Z" stroke="none" fill="#121111"></path>
                        <path d="M82.1100917,65.1966184 C82.1100917,65.1966184 87.6651376,60.8963768 87.7293578,57.3074879 C87.7293578,57.3074879 83.266055,62.2961353 81.1376147,63.9758454 C80.8990826,64.1502415 82.1100917,65.1966184 82.1100917,65.1966184 L82.1100917,65.1966184 Z" stroke="#121111" stroke-width="0.91699996" fill="#000000"></path>
                        <path d="M91.1834862,78.1294686 L91.7201835,77.3997585 C91.7201835,77.3768116 93.4678899,75.0041063 93.4678899,73.3932367 C93.4678899,72.2871981 88.706422,65.8942029 83.8715596,63.4297101 L83.6192661,63.3012077 L83.6192661,62.3833333 L91.559633,50.707971 L91.7385321,49.9415459 L92.6559633,50.0746377 C92.6284404,50.510628 92.5917431,50.9925121 92.5504587,51.4514493 C92.1926606,55.9490338 91.6330275,62.7413043 96.0917431,69.9879227 C96.1192661,70.0338164 97.7110092,72.8471014 99.559633,72.8471014 C100.440367,72.8471014 101.284404,72.1770531 102.073394,70.855314 L102.458716,70.2082126 L107.380734,78.1202899 L91.1834862,78.1294686 Z" stroke="none" fill="#681816"></path>
                        <path d="M92.2018349,50.0241546 C91.9174312,54.4345411 90.6926606,62.0528986 95.706422,70.2173913 C95.706422,70.2173913 97.4220183,73.2968599 99.5642202,73.2968599 C100.481651,73.2968599 101.490826,72.7231884 102.472477,71.0801932 L106.559633,77.6521739 L92.0917431,77.6521739 C92.0917431,77.6521739 93.9266055,75.1601449 93.9266055,73.3748792 C93.9266055,71.9062802 88.8807339,65.4398551 84.0825688,63.0028986 L84.0825688,62.4980676 L91.9908257,50.868599 L92.2018349,50.0241546 L92.2018349,50.0241546 Z M91.3073394,49.8176329 L91.146789,50.5014493 L83.3486239,61.9748792 L83.1880734,62.2089372 L83.1880734,63.5628019 L83.6880734,63.8198068 C88.2293578,66.1144928 92.912844,72.2504831 93.0321101,73.3886473 C93.0321101,74.5818841 91.8348624,76.4772947 91.3761468,77.1060386 L90.3027523,78.5654589 L108.220183,78.5654589 L107.348624,77.1611111 L103.261468,70.5891304 L102.46789,69.3086957 L101.697248,70.6028986 C100.995413,71.7777778 100.284404,72.3743961 99.5779817,72.3743961 C98.2798165,72.3743961 96.9036697,70.4422705 96.5229358,69.7676329 L96.5229358,69.7676329 L96.5229358,69.7676329 C92.1559633,62.6495169 92.6926606,55.9444444 93.0458716,51.5065217 C93.087156,51.0108696 93.1238532,50.5381643 93.1513761,50.1021739 L91.3440367,49.8359903 L91.3073394,49.8176329 Z" stroke="none" fill="#000000"></path>
                        <path d="M72.7522936,77.3263285 C73.6697248,74.421256 74.7385321,69.2306763 73.8440367,67.6886473 C73.8440367,67.6886473 73.6055046,67.3031401 72.0091743,67.3031401 C67.733945,67.3031401 59.1651376,69.9374396 59.0825688,69.9649758 L58.6926606,70.0842995 L44.2293578,55.2285024 L45.2477064,54.8934783 C46.0366972,54.6364734 47.0412844,54.347343 48.2110092,54.0123188 C52.3899083,52.8144928 58.6743119,51.0108696 60.940367,48.7437198 C62.0959426,47.6956665 62.6964825,46.1681326 62.5642202,44.613285 C62.3715596,42.7775362 61.0642202,40.9968599 58.8944954,39.5649758 C54.9587156,37.013285 50.5917431,36.6323671 48.3440367,36.6323671 C47.686521,36.6267232 47.0292903,36.6619764 46.3761468,36.7379227 L42.4862385,37.2932367 L45.9724771,35.4850242 C47.9633028,34.4524155 47.3073394,33.6905797 46.9770642,32.2128019 C46.1697248,29.7620773 41.3486239,29.3719807 38.5321101,29.3719807 C36.9311927,29.3719807 35.7247706,29.4913043 35.7155963,29.4913043 L33.8486239,29.684058 L35.1743119,28.3577295 C36.3205403,27.2127638 36.8551245,25.5912033 36.6146789,23.9886473 L36.6146789,23.9289855 C36.4266055,20.82657 28.733945,18.839372 23.9220183,18.3070048 L22.0183486,18.1188406 L23.6605505,17.1 C28.5825688,14.0434783 28.2477064,11.7120773 28.2477064,11.6891304 C27.3807339,8.0910628 17.0733945,6.47560386 7.23394495,6.47560386 L6.52752294,6.47560386 L1.85779817,6.55821256 L6.31192661,5.18140097 C16.5963303,1.96884058 26.4082569,0.344202899 35.4770642,0.344202899 C49.4633028,0.344202899 59.3073394,4.24516908 65.1009174,7.5173913 C71.4082569,11.078744 74.3669725,14.6125604 74.4862385,14.7594203 L74.9449541,15.3101449 L74.3623853,15.7277778 C70.587156,18.4263285 70.1513761,24.2961353 70.1513761,28.4724638 C70.1513761,32.8736715 72.2798165,41.997343 74.9036697,44.9253623 C75.2093512,45.3535522 75.6703395,45.6451035 76.1880734,45.7376812 C76.3965552,45.7318041 76.5929724,45.6385442 76.7293578,45.4806763 C77.014783,45.1729225 77.1779248,44.7713998 77.1880734,44.3516908 C77.1880734,43.9294686 76.6146789,42.5480676 76.0183486,41.084058 C74.5,37.3620773 72.2018349,31.7309179 72.733945,27.5545894 C73.4816514,21.6985507 78.059633,17.9857488 79.912844,16.7099034 C73.9816514,12.4830918 74.4541284,4.22681159 74.4587156,4.13043478 L74.6238532,1.59710145 L75.7247706,3.89178744 C79.0779817,10.8630435 84.4862385,12.3270531 88.4311927,12.3270531 C90.0959105,12.3353159 91.7517853,12.0844923 93.3394495,11.5835749 L93.7981651,11.4183575 L94.0963303,11.8084541 C94.0963303,11.8084541 95.8486239,13.9333333 100.348624,13.9333333 C104.701835,13.9333333 105.486239,9.51835749 105.518349,9.34396135 L105.747706,7.96714976 L106.665138,9.00434783 C106.711009,9.05483092 111.087156,14.052657 107.481651,19.2937198 L107.022936,19.9408213 L106.454128,19.3992754 C105.650091,18.7791285 104.657086,18.45499 103.642202,18.481401 C101.587156,18.481401 99.266055,19.7067633 96.9082569,22.0243961 C98.5091743,22.4466184 101.449541,23.1855072 102.59633,23.1855072 C103.509661,23.253304 104.409645,22.9354115 105.077982,22.3089372 L106.146789,21.4231884 L106.224771,22.7403382 C106.224771,22.9698068 106.522936,28.4403382 103.802752,30.6386473 L103.151376,31.1664251 L102.784404,30.4091787 C102.715596,30.2714976 101.114679,27.031401 97.3944954,27.031401 L96.8486239,27.031401 L96.8486239,27.031401 C95.5534931,27.2462034 94.3092922,27.6990001 93.1788991,28.3669082 C90.8853211,29.7758454 89.8073394,31.8961353 90.0229358,34.6681159 L90.1513761,36.3065217 L88.9174312,35.22343 C87.95546,34.3284679 87.1913712,33.2419685 86.6743119,32.0338164 C86.1854345,33.9788227 86.3898311,36.0335135 87.2522936,37.8439614 C87.5779817,38.4956522 88.1697248,39.4227053 88.8440367,40.4966184 C92.0550459,45.6 97.4724771,54.1454106 92.4541284,59.9830918 C90.8577982,61.8417874 88.4220183,62.3466184 86.0688073,62.8376812 C83.9908257,63.2690821 82.0275229,63.6775362 81.266055,65.0222222 C79.6559633,67.8630435 80.4954128,72.5671498 80.912844,73.1408213 L81.1651376,73.1408213 C82.9724771,73.1408213 86.1651376,71.4519324 86.2981651,71.3785024 L86.9862385,71.0067633 L89.4357798,78.0514493 L83.3577982,79.1850242 L72.4770642,78.1983092 L72.7522936,77.3263285 Z" stroke="none" fill="#7A1D18"></path>
                        <path d="M86.0412844,35.5905797 C86.0412844,35.5905797 89,48.4958937 88.1972477,53.5258454 C87.3944954,58.5557971 82.8761468,63.452657 82.8761468,63.452657 C82.8761468,63.452657 94.2614679,63.2140097 94.2614679,54.5997585 C94.2614679,46.871256 86.0412844,35.5905797 86.0412844,35.5905797 L86.0412844,35.5905797 Z" stroke="none" fill="#9E4D23"></path>
                        <path d="M1.86238532,6.56280193 C1.86238532,6.56280193 32.412844,2.23043478 44.3440367,4.36908213 C56.2752294,6.50772947 74.9541284,15.3101449 74.9541284,15.3101449 C74.9541284,15.3101449 66.3302752,4.19009662 45.2431193,1.00507246 C24.1559633,-2.17995169 1.86238532,6.56280193 1.86238532,6.56280193 L1.86238532,6.56280193 Z" stroke="none" fill="#7A1D18"></path>
                        <path d="M1.86238532,6.56280193 C1.86238532,6.56280193 23.3440367,-1.58792271 43.7752294,0.793961353 C64.206422,3.17584541 74.9678899,15.3055556 74.9678899,15.3055556 C69.1926606,18.6971014 70.0825688,29.4454106 70.0825688,29.4454106 L71.6651376,37.963285 L74.0825688,43.7413043 L76.206422,45.9396135 L77.2018349,44.3471014 C77.2018349,44.3471014 73.3394495,36.297343 72.6605505,29.3719807 C71.912844,21.9004831 80.3348624,16.7466184 80.3348624,16.7466184 C80.3348624,16.7466184 74.4082569,21.7949275 75.0504587,29.2388889 C75.6926606,36.6828502 80.4633028,44.3562802 79.0917431,46.7978261 C77.7201835,49.239372 72.5779817,47.4954106 65.4357798,50.3224638 C57.0825688,53.6268116 47.440367,58.542029 47.440367,58.542029 L44.2293578,55.2514493 C44.2293578,55.2514493 49.6559633,53.8333333 55.3899083,51.7681159 C58.0229358,50.8181159 62.8394495,48.2434783 62.587156,44.9391304 C62.4688955,43.6629024 61.9392298,42.4597066 61.0779817,41.5108696 C59.559633,39.8357488 56.8256881,38.2707729 53.8577982,37.4263285 C48.8119266,35.9852657 41.8807339,37.371256 41.8807339,37.371256 C41.8807339,37.371256 49.0045872,35.4758454 46.9678899,32.2770531 C46.6036355,31.5979871 46.0673692,31.0266431 45.412844,30.6202899 C44.4954128,30.0971014 43.0917431,29.8263285 41.7431193,29.6014493 C38.2522936,29.0231884 33.9036697,29.7070048 33.9036697,29.7070048 L36.1376147,27.2792271 L36.9954128,24.9432367 C36.9954128,24.9432367 37.4541284,22.9193237 33.9541284,20.9642512 C30.4541284,19.0091787 22.0183486,18.1188406 22.0183486,18.1188406 C22.0183486,18.1188406 25.5504587,16.2555556 27.2477064,14.0801932 C28.206422,12.8502415 28.7752294,11.7855072 27.3073394,10.2572464 C23.2431193,6.03961353 1.86238532,6.56280193 1.86238532,6.56280193 L1.86238532,6.56280193 Z" stroke="none" fill="#681918"></path>
                        <path d="M30.2431193,0.559903382 C30.2431193,0.559903382 56.7568807,-3.047343 74.9495413,15.3055556 C74.9495413,15.3055556 72.1972477,16.902657 71.6743119,19.8031401 C71.6743119,19.8031401 58.0963303,3.09782609 30.2431193,0.559903382 L30.2431193,0.559903382 Z" stroke="none" fill="#591716"></path>
                        <path d="M35.4816514,0.605797101 C49.4082569,0.605797101 59.206422,4.4884058 64.9724771,7.74227053 C71.2385321,11.2806763 74.146789,14.7777778 74.2844037,14.9246377 L74.559633,15.2550725 L74.2110092,15.5028986 C70.3348624,18.2565217 69.8899083,24.2227053 69.8899083,28.4678744 C69.8899083,32.9103865 72.0504587,42.1258454 74.7110092,45.0997585 C75.2385321,45.6871981 75.7522936,46.0176329 76.1926606,46.0176329 C76.471618,46.0116372 76.7356454,45.8903585 76.9220183,45.6826087 C77.2549307,45.3222975 77.4428325,44.8514986 77.4495413,44.3608696 C77.4495413,43.9019324 76.8899083,42.5480676 76.2568807,40.9968599 C74.7477064,37.2978261 72.4678899,31.7125604 72.9908257,27.6050725 C73.766055,21.528744 78.6834862,17.8388889 80.3807339,16.7282609 C74.2385321,12.671256 74.7201835,4.26811594 74.7247706,4.18091787 L74.8256881,2.66183575 L75.4862385,4.03864734 C78.8990826,11.1108696 84.4036697,12.6024155 88.4357798,12.6024155 L88.4357798,12.6024155 C90.1302632,12.6082775 91.8154126,12.3512803 93.4311927,11.8405797 L93.706422,11.7396135 L93.8853211,11.9736715 C93.8853211,11.9736715 95.6743119,14.2270531 100.353211,14.2270531 C104.940367,14.2270531 105.752294,9.59637681 105.788991,9.39903382 L105.926606,8.57753623 L106.481651,9.17874396 C106.522936,9.22922705 110.761468,14.0618357 107.279817,19.1376812 L107.013761,19.5277778 L106.674312,19.2019324 C105.822764,18.5220874 104.758811,18.1645565 103.669725,18.1922705 C101.440367,18.1922705 98.940367,19.5690821 96.4174312,22.1391304 C97.8577982,22.5292271 101.325688,23.428744 102.619266,23.428744 C103.591674,23.5010371 104.550848,23.1689826 105.270642,22.5108696 L105.93578,21.9647343 L105.981651,22.7541063 C105.981651,22.9789855 106.275229,28.3118357 103.66055,30.4275362 L103.270642,30.7442029 L103.050459,30.2852657 C102.981651,30.1429952 101.298165,26.7560386 97.4174312,26.7560386 C97.233945,26.7560386 97.0458716,26.7560386 96.8486239,26.7789855 C95.5169481,26.9987481 94.2380892,27.4657104 93.0779817,28.1557971 C90.6743119,29.6198068 89.5733945,31.8272947 89.793578,34.7048309 L89.8715596,35.6869565 L89.1330275,35.0352657 C87.9895333,33.9778766 87.1486959,32.6344216 86.6972477,31.1434783 C85.9198253,33.372878 86.0483082,35.8185284 87.0550459,37.9541063 C87.3899083,38.6241546 87.9724771,39.5557971 88.6651376,40.6342995 C91.853211,45.6826087 97.1880734,54.113285 92.2981651,59.7995169 C90.7614679,61.589372 88.3715596,62.0942029 86.0642202,62.5531401 C83.9266055,63.0120773 81.9082569,63.415942 81.0825688,64.8478261 C79.3715596,67.8630435 80.2844037,72.9985507 80.8394495,73.3519324 C80.9631873,73.3594974 81.0872714,73.3594974 81.2110092,73.3519324 C83.1192661,73.3519324 86.440367,71.5758454 86.4724771,71.5574879 L86.8853211,71.3326087 L89.1100917,77.7301932 L83.6055046,80.0248792 L72.8623853,77.8816425 L73.0229358,77.3584541 C73.6788991,75.2381643 75.146789,69.3316425 74.0917431,67.486715 C74,67.3306763 73.6330275,66.9681159 72.0412844,66.9681159 C67.733945,66.9681159 59.1238532,69.6115942 59.0366972,69.6391304 L58.8027523,69.7125604 L44.7385321,55.3019324 L45.3486239,55.1 C46.1330275,54.8429952 47.146789,54.5538647 48.3165138,54.2142512 C52.5045872,53.0118357 58.8302752,51.1990338 61.1605505,48.881401 C62.3464464,47.790484 62.9668972,46.2157734 62.8440367,44.6086957 C62.6422018,42.6949275 61.293578,40.8408213 59.0412844,39.381401 C55.0504587,36.7929952 50.6238532,36.4074879 48.3394495,36.4074879 C47.6680715,36.4016983 46.9970015,36.438487 46.3302752,36.5176329 L43.9954128,36.852657 L46.087156,35.7649758 C48.293578,34.6222222 46.2798165,32.0200483 46.5458716,31.9099034 C45.6788991,29.2801932 41.4220183,29.128744 38.5321101,29.128744 C36.9082569,29.128744 35.6972477,29.2480676 35.6880734,29.252657 L34.5825688,29.3719807 L35.3807339,28.57343 C36.5844356,27.3705106 37.1461638,25.6674815 36.8944954,23.984058 L36.8944954,23.9289855 C36.6743119,20.2850242 27.4908257,18.4768116 23.9678899,18.0913043 L22.8165138,17.9628019 L23.8027523,17.3524155 C28.9633028,14.1398551 28.5045872,11.6891304 28.4954128,11.6661836 C27.5779817,7.65966184 16.4633028,6.23695652 7.24311927,6.23695652 L6.53211009,6.23695652 L3.73394495,6.28743961 L6.40825688,5.45217391 C16.6651376,2.23961353 26.4495413,0.628743961 35.4954128,0.628743961 L35.4816514,0.605797101 Z M35.4954128,0.0963768116 C26.3990826,0.0963768116 16.559633,1.72560386 6.24770642,4.94275362 L3.5733945,5.77801932 L0,6.88405797 L3.73394495,6.81521739 L6.53211009,6.7647343 L7.23394495,6.7647343 C16.9495413,6.7647343 27.1100917,8.31135266 27.9587156,11.7625604 C27.9587156,11.9140097 28.0779817,14.0572464 23.5091743,16.8934783 L22.5229358,17.4855072 L21.2110092,18.2978261 L22.7477064,18.4676329 L23.8990826,18.5961353 C27.8853211,19.0550725 36.1697248,20.9229469 36.3486239,23.9381643 L36.3486239,24.0115942 L36.3486239,24.0483092 L36.3486239,24.0758454 C36.5731736,25.5933198 36.0621618,27.1270956 34.9724771,28.2062802 L34.1743119,29.0048309 L33.1146789,30.0649758 L34.6100917,29.9135266 L35.7293578,29.7987923 C35.7293578,29.7987923 36.9220183,29.6794686 38.5229358,29.6794686 C43.1697248,29.6794686 46.1376147,30.6432367 46.6743119,32.3183575 C46.6743119,32.3183575 47.5504587,34.4019324 45.8119266,35.3014493 L43.7201835,36.3891304 L40.9311927,37.8347826 L44.0412844,37.3758454 L46.3761468,37.0408213 C47.0170751,36.9656983 47.6620458,36.9304453 48.3073394,36.9352657 C50.5321101,36.9352657 54.8394495,37.3115942 58.7155963,39.8219807 C60.8256881,41.1987923 62.0917431,42.9060386 62.2752294,44.6591787 C62.3912057,46.1283839 61.8183059,47.5681083 60.7247706,48.5555556 C58.5366972,50.7722222 52.293578,52.5666667 48.1651376,53.7507246 C46.9724771,54.0903382 45.9633028,54.384058 45.1697248,54.6410628 L44.559633,54.8429952 L43.7431193,55.1091787 L44.3440367,55.7241546 L58.4082569,70.1347826 L58.6376147,70.3688406 L58.9495413,70.2724638 L59.1743119,70.2173913 C59.2614679,70.1898551 67.7889908,67.5693237 72.0183486,67.5693237 C73.2477064,67.5693237 73.5733945,67.7987923 73.6146789,67.8355072 C74.4036697,69.2719807 73.4357798,74.2055556 72.4908257,77.2666667 L72.3302752,77.7898551 L72.1146789,78.4874396 L72.8440367,78.4874396 L83.3944954,79.2125604 L89.1055046,78.3497585 L89.8486239,78.3497585 L89.6055046,77.6475845 L87.3807339,71.25 L87.1743119,70.657971 L86.6238532,70.9562802 L86.2110092,71.1811594 C85.087156,71.7777778 82.5963303,72.9113527 81.2018349,72.9113527 L81.1146789,72.9113527 C80.7201835,72.039372 80.0642202,67.7758454 81.5366972,65.1828502 C82.2385321,63.9437198 84.1422018,63.5490338 86.1605505,63.1268116 C88.559633,62.6311594 91.0366972,62.1125604 92.6926606,60.1850242 C97.8394495,54.2188406 92.3715596,45.5495169 89.1055046,40.3818841 C88.4311927,39.3125604 87.8486239,38.3900966 87.5229358,37.7475845 C86.8071937,36.2444125 86.5594783,34.5607329 86.8119266,32.9149758 C87.3196145,33.8636746 87.9833246,34.720088 88.7752294,35.4483092 L89.5137615,36.1 L90.5,36.9673913 L90.3990826,35.6594203 L90.3211009,34.6772947 C90.1146789,32.0154589 91.1330275,29.9777778 93.3486239,28.6285024 C94.4447134,27.9835463 95.6496099,27.5449077 96.9036697,27.3342995 L97.412844,27.3342995 C100.96789,27.3342995 102.5,30.4275362 102.56422,30.5468599 L102.784404,31.0057971 L103.077982,31.6115942 L103.600917,31.189372 L103.990826,30.8727053 C106.743119,28.6285024 106.545872,23.3461353 106.509174,22.7541063 L106.463303,21.9647343 L106.422018,20.863285 L105.610092,21.5333333 L104.944954,22.0794686 C104.328968,22.6618559 103.49663,22.9583112 102.651376,22.8963768 C101.885321,22.8963768 99.9908257,22.5154589 97.4908257,21.8637681 C99.6788991,19.8077295 101.811927,18.7246377 103.697248,18.7246377 C104.649181,18.702143 105.58008,19.0066535 106.334862,19.5874396 L106.669725,19.9041063 L107.12844,20.3400966 L107.481651,19.8214976 L107.747706,19.431401 C111.46789,14.0067633 106.954128,8.87584541 106.908257,8.8115942 L106.353211,8.19202899 L105.610092,7.36594203 L105.426606,8.46280193 L105.288991,9.28429952 C105.256881,9.46328502 104.513761,13.6671498 100.380734,13.6671498 C96.0321101,13.6671498 94.3486239,11.6570048 94.3302752,11.634058 L94.1605505,11.4091787 L93.9220183,11.0971014 L93.5550459,11.2301932 L93.2798165,11.3311594 C91.7207562,11.8180876 90.0965598,12.0641562 88.4633028,12.0608696 C84.5917431,12.0608696 79.2889908,10.6243961 75.9954128,3.77705314 L75.3348624,2.40024155 L74.4541284,0.564492754 L74.3119266,2.60217391 L74.1926606,4.13043478 C74.1926606,4.21304348 73.733945,12.3408213 79.4495413,16.705314 C77.4174312,18.1693237 73.1880734,21.8545894 72.4770642,27.5362319 C71.9357798,31.781401 74.2477064,37.4492754 75.7752294,41.1987923 C76.3119266,42.5113527 76.9174312,44.0028986 76.9266055,44.3746377 C76.9129671,44.7153212 76.7797882,45.0403047 76.5504587,45.2925121 C76.4659422,45.3996048 76.3381776,45.463518 76.2018349,45.4669082 C76.0688073,45.4669082 75.7018349,45.3980676 75.1192661,44.7417874 C72.5779817,41.9055556 70.4357798,32.7268116 70.4357798,28.4678744 C70.4357798,24.3374396 70.8623853,18.5640097 74.5366972,15.9388889 L74.8853211,15.6910628 L75.3440367,15.3560386 L74.9770642,14.8971014 L74.7018349,14.5666667 C74.5779817,14.4152174 71.5917431,10.8492754 65.2385321,7.26038647 C59.412844,3.99275362 49.5412844,0.0734299517 35.4816514,0.0734299517 L35.4954128,0.0963768116 Z" stroke="#121111" stroke-width="0.91699996" fill="#121111"></path>
                        <path d="M94.7155963,16.5217391 C94.7155963,16.5217391 91.9633028,17.5451691 91.6788991,17.4396135 C91.3944954,17.334058 88.9266055,15.1449275 88.9266055,15.1449275 C88.9266055,15.1449275 91.6055046,14.4198068 92.2477064,14.5758454 C92.8899083,14.7318841 94.7155963,16.5217391 94.7155963,16.5217391 L94.7155963,16.5217391 Z" stroke="#121111" stroke-width="0.91699996" fill="#121111"></path>
                    </g>
                </g>
                <g id="fire" transform="translate(74.229358, 20.946860)">
                    <path d="M13.0688073,12.2857488 C11.4908257,12.2857488 9.80275229,11.8268116 7.75688073,10.8722222 C7.29816514,10.647343 6.78899083,10.3628019 6.26605505,10.0644928 C5.0412844,9.35772947 3.67431193,8.56835749 2.21100917,8.42149758 C2.82026301,8.0210118 3.53248966,7.80580588 4.26146789,7.80193237 L4.39449541,7.80193237 C4.85321101,7.80193237 5.34862385,7.84782609 5.87614679,7.89371981 C6.40366972,7.93961353 6.98165138,7.99009662 7.50917431,7.99009662 C9.39908257,7.99009662 10.4082569,7.23285024 10.5137615,5.73671498 C10.5440419,5.22757497 10.3612396,4.72878224 10.0091743,4.35990338 C9.60661033,3.94572153 9.07357958,3.68312974 8.5,3.61642512 C10.1451187,1.81707545 12.4851055,0.813739499 14.9220183,0.862801932 C16.0675851,0.858558641 17.2026228,1.08162017 18.2614679,1.51908213 C19.7427347,2.04036016 21.0038941,3.04815742 21.8394495,4.37826087 L21.8394495,4.41497585 C21.4999217,7.47373685 19.5859378,10.1319781 16.793578,11.4229469 C15.6336695,12.0145593 14.3523457,12.3287609 13.0504587,12.3408213 L13.0688073,12.2857488 Z" id="Shape" fill="#F8DA3B"></path>
                    <path d="M1.29357798,8.42149758 C2.75688073,8.56835749 4.12844037,9.33937198 5.34862385,10.0644928 C5.87155963,10.3673913 6.36238532,10.6519324 6.83944954,10.8722222 C8.8853211,11.8359903 10.5733945,12.2857488 12.1513761,12.2857488 L12.1513761,12.2857488 C13.4532632,12.2736885 14.7345869,11.9594868 15.8944954,11.3678744 C18.6880734,10.092029 21.2889908,7.85700483 21.587156,4.86014493 L21.8165138,4.4884058 C20.9724771,3.01062802 18.5091743,1.8678744 17.3623853,1.46859903 C16.3035402,1.03113708 15.1685025,0.808075549 14.0229358,0.812318841 C11.5860229,0.763256407 9.24603616,1.76659236 7.60091743,3.56594203 C8.02118223,3.66032813 8.4128018,3.85387222 8.74311927,4.13043478 C10.608584,2.29880824 13.3862556,1.7570902 15.8027523,2.75362319 C16.9135752,3.14420599 17.859446,3.89965054 18.4862385,4.8968599 L18.4862385,4.92439614 C18.2289749,7.21877074 16.7896132,9.21082057 14.6926606,10.1746377 C13.821604,10.6136546 12.8606505,10.8445834 11.8853211,10.8492754 L11.8853211,10.8492754 C9.08715596,10.8492754 4.14220183,7.93043478 3.04587156,7.82028986 C2.43357874,7.92636118 1.84207464,8.12930482 1.29357798,8.42149758 L1.29357798,8.42149758 Z" id="Shape" fill="#ED812B"></path>
                    <path d="M14.9449541,1.51908213 C15.9975402,1.5147177 17.0405594,1.71905479 18.0137615,2.12028986 L18.0963303,2.15241546 C19.3468062,2.59880495 20.4230902,3.43131907 21.1697248,4.52971014 C20.7810974,7.26540236 19.0261673,9.61451212 16.5137615,10.7620773 L16.4862385,10.7620773 C15.4212747,11.2973663 14.246843,11.5785492 13.0550459,11.5835749 C11.5825688,11.5835749 9.98623853,11.1567633 8.03669725,10.2342995 C7.57798165,10.0231884 7.11926606,9.74323671 6.59633028,9.44951691 C6.0733945,9.1557971 5.43577982,8.7794686 4.81192661,8.48574879 C5.11926606,8.48574879 5.45412844,8.53164251 5.79816514,8.56376812 C6.35779817,8.61425121 6.93577982,8.6647343 7.49082569,8.6647343 C10.5275229,8.6647343 11.1055046,6.82898551 11.1605505,5.76884058 C11.2081048,5.06555819 10.9584776,4.37458929 10.4724771,3.86425121 C10.2590525,3.63860886 10.011354,3.44809861 9.73853211,3.29975845 C11.1959699,2.11291188 13.0246801,1.47759115 14.9036697,1.50531401 L14.9449541,1.51908213 Z M14.9036697,0.128502415 C11.6697248,0.128502415 8.3853211,1.71642512 6.83944954,4.77753623 C7.17602108,4.43786899 7.63669125,4.2505277 8.1146789,4.2589372 C8.99541284,4.2589372 9.8440367,4.83719807 9.78440367,5.67246377 C9.69266055,6.98961353 8.70183486,7.28333333 7.46788991,7.28333333 C6.47706422,7.28333333 5.32568807,7.09516908 4.35321101,7.09516908 L4.20642202,7.09516908 C2.622991,7.11359885 1.16324902,7.95509459 0.353211009,9.31642512 C0.782082519,9.15148661 1.23778288,9.0674603 1.69724771,9.06859903 C3.73394495,9.06859903 5.66055046,10.647343 7.42201835,11.4780193 C9.15790367,12.3803065 11.0726218,12.8850832 13.0275229,12.9557971 C14.4274653,12.951079 15.8073886,12.6228159 17.059633,11.9966184 C20.1487492,10.585014 22.2407556,7.62078306 22.5366972,4.23599034 L22.4266055,4.00652174 C21.5225791,2.52973507 20.1374742,1.40977031 18.5045872,0.8352657 C17.3619513,0.36076259 16.1362276,0.118931864 14.8990826,0.123913043 L14.9036697,0.128502415 Z" id="Shape" fill="#121111"></path>
                </g>
                <g id="text" transform="translate(0.834862, 52.613527)">
                    <path d="M95.1009174,0.247826087 L78.8990826,0.247826087 C78.7799133,0.241026962 78.6604537,0.241026962 78.5412844,0.247826087 L74.206422,0.247826087 L74.0045872,0.247826087 L38.2706422,0.247826087 L38.2706422,0.247826087 L38.0733945,0.247826087 L33.7247706,0.247826087 C33.168794,0.257759809 32.6255785,0.416208169 32.1513761,0.706763285 C31.6666006,0.409637807 31.1097877,0.250925016 30.5412844,0.247826087 L26.2155963,0.247826087 C25.5,0.247826087 24.0963303,0.289130435 24.0963303,0.289130435 L17.8899083,0.289130435 L15.3211009,0.289130435 L0.321100917,0.289130435 L0.321100917,14.9751208 L2.6146789,17.4120773 L2.6146789,17.4120773 L21.559633,16.273913 L22.0183486,16.273913 L22.0183486,16.273913 L22.5321101,16.273913 L22.5321101,16.273913 L22.7110092,16.273913 L26.7293578,16.1454106 L34.4266055,15.9021739 L34.4266055,15.9021739 C35.8027523,15.8715781 37.1788991,15.8455717 38.5550459,15.8241546 L38.7110092,15.8241546 L38.7110092,15.8241546 L40.9311927,15.8012077 L44.6009174,15.7690821 L50.8165138,15.7690821 L50.8165138,15.7690821 L54.3715596,15.8057971 L56.8853211,15.8379227 L57.3394495,15.8379227 L59.5825688,15.8792271 L60.3027523,15.8792271 L60.9220183,15.8792271 L64.5917431,15.9664251 L64.5917431,15.9664251 L67.8899083,16.0628019 L72.7614679,16.2371981 L72.8348624,16.2371981 C74.204893,16.2953301 75.5810398,16.3565217 76.9633028,16.4207729 L77.0366972,16.4207729 L81.4174312,16.6502415 L84.4174312,16.8246377 L85.8669725,16.9118357 L87.0917431,16.9898551 L91.1146789,17.260628 L91.1146789,17.260628 L93.3394495,14.8374396 L93.3394495,7.03550725 L95.0963303,7.03550725 L95.1009174,0.247826087 Z" id="dk_bg" fill="#0C0E10"></path>
                    <path d="M6.88073394,10.0002415 L4.4266055,10.1103865 L4.4266055,5.89275362 L2.65137615,5.89275362 L2.65137615,12.2214976 C4.36085627,12.1174718 6.07186544,12.021095 7.78440367,11.9323671 C8.02641952,11.9186664 8.25209208,11.8057756 8.40825688,11.6202899 C8.58417931,11.4223289 8.67773057,11.1645282 8.66972477,10.8997585 L8.66972477,5.85144928 L6.87614679,5.85144928 C6.87920489,7.24355878 6.88073394,8.62648953 6.88073394,10.0002415 L6.88073394,10.0002415 Z" id="Shape" fill="#9B732C"></path>
                    <path d="M14.412844,6.57657005 L11.9220183,6.62705314 L11.9220183,5.85603865 L10.1284404,5.85603865 L10.1284404,11.8222222 L11.9220183,11.7350242 L11.9220183,8.58671498 L13.2110092,8.54541063 C13.7920489,9.57037037 14.3715596,10.5861514 14.9495413,11.5927536 L17.0366972,11.5055556 C16.4556575,10.5050725 15.8761468,9.49694042 15.2981651,8.48115942 C15.5439358,8.47771259 15.7769568,8.37113724 15.940367,8.18743961 C16.1148666,7.99777013 16.2086532,7.74755164 16.2018349,7.48985507 L16.2018349,5.83768116 L14.4082569,5.83768116 C14.411315,6.08550725 14.412844,6.33180354 14.412844,6.57657005 L14.412844,6.57657005 Z" id="Shape" fill="#9B732C"></path>
                    <path d="M21.8440367,7.3705314 L20.1192661,7.402657 L20.5779817,5.8147343 L18.6972477,5.8147343 C18.1712538,7.69331723 17.6437309,9.58413849 17.1146789,11.4871981 L18.9495413,11.4137681 L19.559633,9.30724638 L22.3807339,9.22922705 L22.9724771,11.2714976 L24.8073394,11.2118357 C24.2874618,9.41586151 23.7675841,7.60917874 23.2477064,5.79178744 L21.3669725,5.79178744 L21.8440367,7.3705314 Z" id="Shape" fill="#9B732C"></path>
                    <path d="M25.3256881,10.2801932 C25.3180959,10.5257663 25.4127959,10.7634618 25.587156,10.9364734 C25.7513993,11.1054572 25.9802804,11.1957167 26.2155963,11.1842995 L30.5504587,11.0741546 C30.7886427,11.0716513 31.0155414,10.9722315 31.1788991,10.7987923 C31.3500847,10.623697 31.4442225,10.3874126 31.440367,10.1425121 L31.440367,8.17826087 L31.440367,6.37004831 L28.5688073,6.40217391 L28.5688073,8.23792271 L29.6651376,8.23792271 L29.6651376,9.31183575 L27.1055046,9.36231884 L27.1055046,5.81932367 L25.3302752,5.81932367 C25.3272171,7.29710145 25.3256881,8.78405797 25.3256881,10.2801932 L25.3256881,10.2801932 Z" id="Shape" fill="#9B732C"></path>
                    <path d="M37.1559633,9.17874396 L34.6146789,9.21086957 L34.6146789,5.76884058 L32.8211009,5.76884058 L32.8211009,10.1425121 C32.8131109,10.3814293 32.908387,10.6122094 33.0825688,10.7758454 C33.2505835,10.9380787 33.4777144,11.0243306 33.7110092,11.0144928 L38.0642202,10.9456522 C38.2995133,10.9469401 38.52564,10.8544641 38.6926606,10.6886473 C38.8653598,10.5239913 38.9603486,10.2939073 38.9541284,10.055314 L38.9541284,5.74130435 L37.1605505,5.74130435 C37.1574924,6.88252818 37.1559633,8.02834138 37.1559633,9.17874396 L37.1559633,9.17874396 Z" id="Shape" fill="#9B732C"></path>
                    <path d="M45.5504587,6.55362319 L45.0366972,5.7 L42.646789,5.7 L45.7752294,10.8630435 L47.3440367,10.8630435 L47.3440367,5.67705314 L45.5504587,5.67705314 L45.5504587,6.55362319 Z" id="Shape" fill="#9B732C"></path>
                    <path d="M40.5917431,10.9089372 L42.3669725,10.9089372 L42.3669725,5.72753623 L40.5917431,5.72753623 C40.5917431,7.4531401 40.5917431,9.18027375 40.5917431,10.9089372 L40.5917431,10.9089372 Z" id="Shape" fill="#9B732C"></path>
                    <path d="M55.1238532,6.57198068 L55.1238532,5.65410628 L53.3302752,5.65410628 L53.3302752,10.8859903 L54.8440367,10.8859903 L56.3577982,8.50869565 L57.8715596,10.9227053 L60.2385321,10.9594203 C59.3669725,9.48470209 58.4954128,8.01916264 57.6238532,6.56280193 L57.5733945,6.56280193 L58.1697248,5.62198068 L55.6743119,5.62198068 L55.1238532,6.57198068 Z" id="Shape" fill="#9B732C"></path>
                    <path d="M66.6146789,6.66835749 L65.9954128,5.60821256 L63.6192661,5.60821256 C64.6926606,7.42560386 65.7629969,9.26135266 66.8302752,11.1154589 L68.3990826,11.1567633 L68.3990826,5.58985507 L66.6055046,5.58985507 C66.6116208,5.95394525 66.6146789,6.31344605 66.6146789,6.66835749 L66.6146789,6.66835749 Z" id="Shape" fill="#9B732C"></path>
                    <path d="M61.6559633,11.0144928 L63.4311927,11.0512077 L63.4311927,5.62657005 L61.6559633,5.62657005 C61.6529052,7.4194847 61.6529052,9.21545894 61.6559633,11.0144928 L61.6559633,11.0144928 Z" id="Shape" fill="#9B732C"></path>
                    <path d="M70.0779817,11.2072464 L71.8715596,11.2623188 L71.8715596,5.57608696 L70.0779817,5.57608696 L70.0779817,11.2072464 Z" id="Shape" fill="#9B732C"></path>
                    <path d="M73.3348624,10.3719807 C73.3299296,10.6238791 73.4237863,10.8676949 73.5963303,11.0512077 C73.7561703,11.2318872 73.9836948,11.3382274 74.2247706,11.3449275 L78.559633,11.5101449 C78.7961752,11.5234909 79.0264191,11.4310125 79.1880734,11.2577295 C79.3650653,11.0770462 79.45967,10.8312872 79.4495413,10.5785024 L79.4495413,8.49951691 L79.4495413,6.58574879 L76.5779817,6.5352657 L76.5779817,8.42149758 L77.6743119,8.44903382 L77.6743119,9.57342995 L75.1146789,9.49541063 L75.1146789,5.56231884 L73.3394495,5.56231884 C73.3333333,7.16859903 73.3318043,8.77181965 73.3348624,10.3719807 L73.3348624,10.3719807 Z" id="Shape" fill="#9B732C"></path>
                    <path d="M84.6605505,6.71425121 L82.1880734,6.65917874 L82.1880734,5.52560386 L80.3944954,5.52560386 L80.3944954,11.5743961 L82.1880734,11.6524155 L82.1880734,8.58671498 L84.6605505,8.6647343 L84.6605505,11.7671498 L86.4174312,11.8543478 L86.4174312,5.49347826 L84.6605505,5.49347826 L84.6605505,6.71425121 L84.6605505,6.71425121 Z" id="Shape" fill="#9B732C"></path>
                    <path d="M89.2385321,5.50724638 L89.2385321,12.0333333 L91.0321101,12.1342995 L91.0321101,5.50724638 L89.2385321,5.50724638 Z" id="Shape" fill="#9B732C"></path>
                    <path d="M8.3898993,2.84541866 C8.23500936,2.66136202 8.00653386,2.55547298 7.76604609,2.55628823 L2.62843141,2.55628823 L2.62843141,5.89735103 L4.40366077,5.89735103 L4.40366077,4.62150562 L6.87613783,4.58938002 L6.87613783,5.88358291 L8.66971581,5.88358291 L8.66971581,3.58889692 C8.68031212,3.31348472 8.57942972,3.0454381 8.3898993,2.84541866 L8.3898993,2.84541866 Z" id="Shape" fill="#AA822D"></path>
                    <path d="M15.9449541,2.83164251 C15.7806911,2.65135717 15.5465255,2.55095201 15.3027523,2.55628019 L10.1330275,2.55628019 L10.1330275,5.86521739 L11.9266055,5.86521739 L11.9266055,4.51594203 L14.4174312,4.49299517 L14.4174312,5.86980676 L16.2110092,5.86980676 L16.2110092,3.53381643 C16.2264571,3.27251054 16.1296578,3.01703725 15.9449541,2.83164251 L15.9449541,2.83164251 Z" id="Shape" fill="#AA822D"></path>
                    <path d="M19.6192661,2.57463768 C19.3165138,3.6531401 19.0091743,4.73623188 18.7018349,5.82391304 L20.5825688,5.82391304 L20.9908257,4.44710145 L21.3899083,5.82391304 L23.2706422,5.82391304 C22.9633028,4.75 22.6559633,3.67608696 22.353211,2.61135266 L19.6192661,2.57463768 Z" id="Shape" fill="#AA822D"></path>
                    <path d="M29.6605505,4.39672534 L29.6605505,5.48899588 L31.4357798,5.48899588 L31.4357798,3.50638718 C31.4426446,3.262294 31.3479586,3.02629569 31.1743119,2.85469636 C31.0101717,2.68405562 30.7825523,2.58930691 30.5458716,2.59310216 L26.2155963,2.59310216 C25.9780043,2.58936923 25.7498456,2.68600862 25.587156,2.85928573 C25.4136751,3.03662603 25.3193531,3.27668401 25.3256881,3.52474467 L25.3256881,5.85155626 L27.1009174,5.85155626 L27.1009174,4.43344032 L29.6605505,4.39672534 Z" id="Shape" fill="#AA822D"></path>
                    <path d="M38.7064019,2.85014955 C38.541163,2.68165965 38.3138546,2.58870037 38.0779615,2.59314472 L33.7247505,2.59314472 C33.2343106,2.59565462 32.8373509,2.99280609 32.8348422,3.48348288 L32.8348422,5.77816887 L34.6284202,5.77816887 L34.6284202,4.37841042 L37.1697046,4.37841042 L37.1697046,5.75522201 L38.9632826,5.75522201 L38.9632826,3.46053602 C38.9643027,3.23056629 38.8715313,3.0101278 38.7064019,2.85014955 L38.7064019,2.85014955 Z" id="Shape" fill="#AA822D"></path>
                    <path d="M43.1513761,2.56545726 L40.5917431,2.56545726 L40.5917431,5.73212392 L42.3669725,5.73212392 L42.3669725,5.27318673 L42.6513761,5.73212392 L45.0412844,5.73212392 L43.1513761,2.56545726 Z" id="Shape" fill="#AA822D"></path>
                    <path d="M45.5504587,2.55628019 L45.5504587,5.7 L47.3440367,5.7 L47.3440367,2.56086957 L45.5504587,2.55628019 Z" id="Shape" fill="#AA822D"></path>
                    <path d="M57.559633,2.55628019 L55.6788991,5.65410628 L58.1743119,5.65410628 C58.8287462,4.62608696 59.4816514,3.59653784 60.1330275,2.56545894 L57.559633,2.55628019 Z" id="Shape" fill="#AA822D"></path>
                    <path d="M55.1238532,2.55628019 L53.3302752,2.55628019 L53.3302752,5.6678744 L55.1238532,5.6678744 L55.1238532,2.55628019 L55.1238532,2.55628019 Z" id="Shape" fill="#AA822D"></path>
                    <path d="M64.2201835,2.55628019 L61.6513761,2.55628019 L61.6513761,5.62657005 L63.4266055,5.62657005 L63.4266055,5.30072464 L63.6192661,5.62657005 L65.9954128,5.62657005 C65.3990826,4.58937198 64.8027523,3.56594203 64.2201835,2.55628019 L64.2201835,2.55628019 Z" id="Shape" fill="#AA822D"></path>
                    <path d="M66.6100917,2.55628019 L66.6100917,5.60362319 L68.4036697,5.60362319 L68.4036697,2.56545894 L66.6100917,2.55628019 Z" id="Shape" fill="#AA822D"></path>
                    <path d="M70.0733945,2.55628019 L70.0733945,5.5852657 L71.8669725,5.5852657 L71.8669725,2.56086957 L70.0733945,2.55628019 Z" id="Shape" fill="#AA822D"></path>
                    <path d="M79.1788991,2.81328502 C79.0197298,2.63344944 78.7905432,2.53135355 78.5504587,2.53333333 L74.2155963,2.53333333 C73.9770701,2.52961647 73.7483483,2.62816469 73.587156,2.80410628 C73.4125139,2.98256422 73.3180985,3.22451705 73.3256881,3.47415459 L73.3256881,5.56690821 L75.1009174,5.56690821 L75.1009174,4.41497585 L77.6605505,4.41497585 L77.6605505,5.53478261 L79.4357798,5.53478261 L79.4357798,3.49251208 C79.4414654,3.24133591 79.349354,2.99778123 79.1788991,2.81328502 L79.1788991,2.81328502 Z" id="Shape" fill="#AA822D"></path>
                    <path d="M82.1880734,2.55628019 L80.3944954,2.55628019 L80.3944954,5.53937198 L82.1880734,5.53937198 L82.1880734,2.55628019 L82.1880734,2.55628019 Z" id="Shape" fill="#AA822D"></path>
                    <path d="M84.6605505,2.55628019 L84.6605505,5.51642512 L86.4174312,5.51642512 L86.4174312,2.56086957 L84.6605505,2.55628019 Z" id="Shape" fill="#AA822D"></path>
                    <path d="M91.0321101,4.64903942 L92.7889908,4.64903942 L92.7889908,2.61594763 L87.4770642,2.61594763 L87.4770642,4.58937758 L89.233945,4.58937758 L89.233945,5.53937758 L91.0275229,5.53937758 C91.030581,5.25177694 91.0321101,4.95499755 91.0321101,4.64903942 L91.0321101,4.64903942 Z" id="Shape" fill="#AA822D"></path>
                    <path d="M65.1284404,14.2430028 L65.1284404,13.423913 L61.4587156,13.423913 C61.2714561,13.4018958 61.0830425,13.3911679 60.8944954,13.3917874 C60.724252,13.3913763 60.5541641,13.4021077 60.3853211,13.423913 L59.8990826,13.423913 L59.8990826,13.5202899 C59.1790068,13.7099902 58.557686,14.1659549 58.1605505,14.7961353 L57.2155963,14.7961353 L57.2155963,14.8144928 L56.2241261,14.8144928 C56.0184549,14.7778181 55.8028332,14.7564978 55.5779817,14.7514257 L55.5779817,13.0888889 L52.1422018,13.5669835 L52.1422018,13.0888889 L46.9311927,13.8140097 L46.9311927,14.8144928 L44.1578879,14.8144928 C43.9257359,14.7751853 43.6830185,14.7548309 43.4311927,14.7548309 C43.2429493,14.7548309 43.0597956,14.7661673 42.88234,14.7882648 C42.3396818,14.12167 41.4551944,13.6625604 40.1880734,13.6625604 L36.353211,13.6625604 L36.353211,13.8919628 L35.9082569,13.7956522 C35.3338324,13.6721777 34.748081,13.6091136 34.1605505,13.6074879 C33.8514466,13.6074879 33.5684331,13.6284113 33.3093401,13.6671498 L25.5091743,13.6671498 L26.5550459,18.8439614 C26.5550459,20.5099034 27.7293578,22.2997585 30.3119266,22.2997585 C30.9832143,22.2997585 31.559355,22.1785191 32.0443765,21.9698915 C32.6666143,22.1920494 33.3237704,22.3039997 33.9862385,22.2997585 C35.0471685,22.2997585 35.8083443,22.0602078 36.353211,21.7004965 L36.353211,22.2355072 L40.3165138,22.2538647 C40.8674126,22.2538647 41.3707198,22.1558751 41.8111166,21.9752219 C42.2864717,22.1853549 42.8328609,22.2997585 43.4311927,22.2997585 C43.9888818,22.2997585 44.5018993,22.1999328 44.954423,22.0155023 C45.3513617,22.2068195 45.7840767,22.2997585 46.206422,22.2997585 L46.206422,22.2997585 C46.455461,22.298559 46.7039888,22.2770709 46.9495413,22.2355072 L48.6651376,22.2355072 L50.9969377,22.2355072 C51.2100811,22.277783 51.4333262,22.2997585 51.6651376,22.2997585 L51.6651376,22.2997585 C51.8776804,22.298004 52.0896005,22.2764944 52.2981651,22.2355072 L54.7649135,22.2355072 C55.0086507,22.2778659 55.2648735,22.2997585 55.5321101,22.2997585 C55.8177225,22.2987014 56.10239,22.2768311 56.3838866,22.2345277 L57.6743119,22.2333922 L57.6743119,22.2355072 L59.0105977,22.2322163 L60.4862385,22.2309179 L60.4862385,22.2285822 L63.8364005,22.2203317 C64.1449712,22.2700274 64.4572499,22.2966414 64.7706422,22.2997585 C65.4265393,22.2997585 66.006664,22.168193 66.4901102,21.9243816 C66.7873757,21.9941017 67.1155437,22.0289855 67.4724771,22.0289855 L67.4724771,22.0289855 C67.9349833,22.0321738 68.39499,21.9608925 68.8348624,21.8178744 C68.8348624,21.8178744 70.4357798,21.1065217 70.6238532,20.4640097 C70.8119266,19.8214976 70.5688073,17.5497585 70.5688073,17.5497585 L71.8073394,14.7961353 L69.7614679,14.7961353 L69.7614679,13.5983092 L65.1284404,14.2430028 Z" id="boulder_fist_bg" fill="#0C0E10"></path>
                    <path d="M31.9266055,15.8103865 L31.9266055,18.8439614 C31.9266055,19.4956522 31.5229358,20.1565217 30.3119266,20.1565217 C29.1009174,20.1565217 28.6972477,19.4956522 28.6972477,18.8439614 L28.6972477,15.8103865 L29.6605505,15.8103865 L29.6605505,18.7567633 C29.6605505,19.1055556 29.8256881,19.3028986 30.3073394,19.3028986 C30.7889908,19.3028986 30.9587156,19.1055556 30.9587156,18.7567633 L30.9587156,15.8103865 L31.9266055,15.8103865 Z" id="Shape" fill="#FFFFFF"></path>
                    <path d="M33.9862385,20.1565217 C33.5137189,20.1578746 33.0457436,20.0642343 32.6100917,19.8811594 L32.7706422,19.1330918 C33.1688734,19.2650943 33.5850965,19.3347563 34.0045872,19.3396135 C34.5,19.3396135 34.5963303,19.2432367 34.5963303,18.8806763 C34.5963303,18.5181159 34.5963303,18.4492754 33.8761468,18.2978261 C32.8394495,18.0729469 32.6880734,17.8664251 32.6880734,16.9210145 C32.6880734,16.0673913 32.9908257,15.7231884 34.1651376,15.7231884 C34.6016368,15.7251443 35.0367313,15.7728279 35.4633028,15.8654589 L35.3669725,16.6777778 C34.9755696,16.6002055 34.5778781,16.5587273 34.1788991,16.5538647 C33.7477064,16.5538647 33.6513761,16.6318841 33.6513761,16.9439614 C33.6513761,17.3570048 33.6513761,17.3615942 34.3440367,17.5222222 C35.5,17.7975845 35.559633,18.0224638 35.559633,18.8669082 C35.559633,19.7113527 35.2752294,20.1565217 33.9862385,20.1565217 L33.9862385,20.1565217 Z" id="Shape" fill="#FFFFFF"></path>
                    <polygon id="Shape" fill="#FFFFFF" points="36.1651376 18.6741546 36.1651376 17.8985507 37.8211009 17.8985507 37.8211009 18.6695652"></polygon>
                    <path d="M40.3256881,20.0922705 L38.4908257,20.0922705 L38.4908257,15.8103865 L40.1788991,15.8103865 C41.0733945,15.8103865 41.3990826,16.1683575 41.3990826,16.7282609 L41.3990826,17.1871981 C41.4132589,17.489146 41.2262841,17.7641316 40.940367,17.8618357 C41.3085802,17.9455481 41.5696126,18.2734259 41.5688073,18.6512077 L41.5688073,19.0688406 C41.5642202,19.6746377 41.1788991,20.0922705 40.3256881,20.0922705 L40.3256881,20.0922705 Z M40.4495413,16.8797101 C40.4495413,16.6915459 40.3348624,16.5768116 40.0642202,16.5768116 L39.4495413,16.5768116 L39.4495413,17.5543478 L40.0458716,17.5543478 C40.3027523,17.5543478 40.4311927,17.4258454 40.4311927,17.2514493 L40.4495413,16.8797101 Z M40.6055046,18.6649758 C40.6055046,18.4263285 40.4587156,18.3070048 40.2018349,18.3070048 L39.4495413,18.3070048 L39.4495413,19.3028986 L40.0458716,19.3028986 C40.3486239,19.3028986 40.587156,19.2386473 40.587156,18.9311594 L40.6055046,18.6649758 Z" id="Shape" fill="#FFFFFF"></path>
                    <path d="M42.0137615,18.8898551 L42.0137615,18.1647343 C42.0137615,17.5222222 42.3165138,16.8980676 43.4266055,16.8980676 C44.5366972,16.8980676 44.8394495,17.5222222 44.8394495,18.1647343 L44.8394495,18.8898551 C44.8394495,19.5323671 44.5366972,20.1565217 43.4266055,20.1565217 C42.3165138,20.1565217 42.0137615,19.5323671 42.0137615,18.8898551 L42.0137615,18.8898551 Z M43.9174312,18.9173913 L43.9174312,18.1371981 C43.9174312,17.8434783 43.7614679,17.6782609 43.4311927,17.6782609 C43.1009174,17.6782609 42.9449541,17.8480676 42.9449541,18.1371981 L42.9449541,18.9173913 C42.9449541,19.2111111 43.1009174,19.3763285 43.4311927,19.3763285 C43.7614679,19.3763285 43.9174312,19.2111111 43.9174312,18.9128019 L43.9174312,18.9173913 Z" id="Shape" fill="#FFFFFF"></path>
                    <path d="M46.412844,16.9806763 L46.412844,19.0504831 C46.4033675,19.1125512 46.4239784,19.1754268 46.4683548,19.2198247 C46.5127313,19.2642226 46.5755765,19.2848434 46.6376147,19.2753623 C46.8748873,19.2450922 47.1039552,19.1686994 47.3119266,19.0504831 L47.3119266,16.9806763 L48.2293578,16.9806763 L48.2293578,20.110628 L47.5412844,20.110628 L47.4449541,19.8719807 C47.0541462,20.0572905 46.6294832,20.1603835 46.1972477,20.1748792 C45.6651376,20.1748792 45.4770642,19.7756039 45.4770642,19.1698068 L45.4770642,16.9806763 L46.412844,16.9806763 Z" id="Shape" fill="#FFFFFF"></path>
                    <polygon id="Shape" fill="#FFFFFF" points="49.0825688 20.0922705 49.0825688 15.6818841 50 15.5533816 50 20.0922705"></polygon>
                    <path d="M50.6743119,18.05 C50.6743119,17.3111111 50.9954128,16.8934783 51.7293578,16.8934783 C51.9978933,16.8959956 52.2654197,16.9267606 52.5275229,16.9852657 L52.5275229,15.6818841 L53.4449541,15.5533816 L53.4449541,20.0922705 L52.7201835,20.0922705 L52.6238532,19.8398551 C52.3349169,20.0257012 52.0033532,20.1346962 51.6605505,20.1565217 C51.0229358,20.1565217 50.6697248,19.7664251 50.6697248,19 L50.6743119,18.05 Z M52.5091743,17.7746377 C52.3152839,17.7275291 52.1169005,17.7013729 51.9174312,17.6966184 C51.6743119,17.6966184 51.5825688,17.8434783 51.5825688,18.05 L51.5825688,18.9954106 C51.5825688,19.2157005 51.6743119,19.3487923 51.9174312,19.3487923 C52.1355987,19.3330944 52.3429922,19.247845 52.5091743,19.1055556 L52.5091743,17.7746377 Z" id="Shape" fill="#FFFFFF"></path>
                    <path d="M55.0458716,18.8485507 L55.0458716,18.9403382 C55.0458716,19.2983092 55.1880734,19.3992754 55.6100917,19.3992754 C55.9310612,19.3966492 56.2502991,19.3519035 56.559633,19.2661836 L56.6926606,19.9591787 C56.3143728,20.0876936 55.9178445,20.1543302 55.5183486,20.1565217 C54.5045872,20.1565217 54.1192661,19.6562802 54.1192661,18.8852657 L54.1192661,18.1509662 C54.1192661,17.4763285 54.4220183,16.8980676 55.4633028,16.8980676 C56.5045872,16.8980676 56.7293578,17.5130435 56.7293578,18.1968599 L56.7293578,18.8531401 L55.0458716,18.8485507 Z M55.853211,18.0178744 C55.853211,17.7975845 55.7889908,17.618599 55.4678899,17.618599 C55.146789,17.618599 55.0458716,17.7975845 55.0458716,18.0178744 L55.0458716,18.1509662 L55.853211,18.1509662 L55.853211,18.0178744 Z" id="Shape" fill="#FFFFFF"></path>
                    <path d="M58.3394495,18.1785024 L58.3394495,20.0876812 L57.4220183,20.0876812 L57.4220183,16.9806763 L58.1926606,16.9806763 L58.2568807,17.2835749 C58.5177788,17.1186796 58.8024429,16.9948528 59.1009174,16.9164251 L59.1788991,17.7884058 C58.8865454,17.8895247 58.6052713,18.0202342 58.3394495,18.1785024 L58.3394495,18.1785024 Z" id="Shape" fill="#FFFFFF"></path>
                    <path d="M62.0275229,20.0922705 L62.0275229,17.7012077 L60.7431193,17.7012077 L60.7431193,20.0922705 L59.8256881,20.0922705 L59.8256881,17.7012077 L59.587156,17.7012077 L59.587156,16.9806763 L59.8256881,16.9806763 L59.8256881,16.5768116 C59.8256881,15.9342995 60.1284404,15.5717391 60.8853211,15.5717391 C61.1022371,15.5683778 61.3185117,15.5961979 61.5275229,15.6543478 L61.412844,16.3794686 C61.2981644,16.355541 61.181366,16.3432405 61.0642202,16.3427536 C60.7706422,16.3427536 60.7477064,16.471256 60.7477064,16.6777778 L60.7477064,16.9806763 L62.9587156,16.9806763 L62.9587156,20.110628 L62.0275229,20.0922705 Z M62.0275229,16.5676329 L62.0275229,15.6038647 L62.9449541,15.6038647 L62.9449541,16.5859903 L62.0275229,16.5676329 Z" id="Shape" fill="#FFFFFF"></path>
                    <path d="M64.7706422,20.1565217 C64.3845741,20.1466352 64.0017338,20.0833125 63.6330275,19.9683575 L63.7614679,19.2753623 C64.0681983,19.3670079 64.3863175,19.4149034 64.706422,19.4176329 C64.9816514,19.4176329 65.0275229,19.3396135 65.0275229,19.1560386 C65.0275229,18.9724638 65.0275229,18.9311594 64.5183486,18.8072464 C63.7614679,18.6190821 63.6880734,18.4171498 63.6880734,17.8297101 C63.6880734,17.1688406 63.9449541,16.9118357 64.8853211,16.9118357 C65.2044677,16.9126482 65.5226744,16.9464836 65.8348624,17.0128019 L65.7522936,17.7333333 C65.4678524,17.6790051 65.1794076,17.6483047 64.8899083,17.6415459 C64.6192661,17.6415459 64.5550459,17.7103865 64.5550459,17.852657 C64.5550459,17.9949275 64.5825688,18.0729469 64.9541284,18.1555556 C65.8486239,18.3528986 65.912844,18.5456522 65.912844,19.1698068 C65.912844,19.7939614 65.6605505,20.1565217 64.7706422,20.1565217 L64.7706422,20.1565217 Z" id="Shape" fill="#FFFFFF"></path>
                    <path d="M67.6376147,20.1565217 C67.0412844,20.1565217 66.6926606,19.9316425 66.6926606,19.3533816 L66.6926606,17.7057971 L66.266055,17.7057971 L66.266055,16.9806763 L66.6926606,16.9806763 L66.6926606,16.2280193 L67.6100917,16.0995169 L67.6100917,16.9806763 L68.3486239,16.9806763 L68.2981651,17.728744 L67.6376147,17.728744 L67.6376147,19.2478261 C67.6376147,19.3763285 67.7155963,19.4222222 67.8302752,19.4222222 C67.9610075,19.4221413 68.0909556,19.4020206 68.2155963,19.3625604 L68.3256881,20.0647343 C68.1026899,20.1318435 67.8703972,20.1628308 67.6376147,20.1565217 L67.6376147,20.1565217 Z" id="Shape" fill="#FFFFFF"></path>
                </g>
            </g>
        </g>
    </g>
</svg>